<?xml version="1.0" encoding="utf-8"?>
<!-- Generator: Adobe Illustrator 17.0.0, SVG Export Plug-In . SVG Version: 6.00 Build 0)  -->
<!DOCTYPE svg PUBLIC "-//W3C//DTD SVG 1.1//EN" "http://www.w3.org/Graphics/SVG/1.1/DTD/svg11.dtd">
<svg version="1.1" id="Calque_1" xmlns="http://www.w3.org/2000/svg" xmlns:xlink="http://www.w3.org/1999/xlink" x="0px" y="0px"
	 width="146px" height="27px" viewBox="0 0 146 27" enable-background="new 0 0 146 27" xml:space="preserve">
<path fill="#005826" stroke="#005826" stroke-width="0.1927" d="M5.647,3.659C5.606,3.652,5.565,3.646,5.523,3.64
	c-0.01-0.062-0.022-0.127-0.036-0.195s-0.031-0.132-0.054-0.19C5.409,3.196,5.379,3.14,5.342,3.087
	C5.307,3.035,5.256,2.993,5.198,2.962h0.008C5.061,2.899,4.91,2.855,4.755,2.827C4.602,2.8,4.446,2.78,4.287,2.772
	c-0.155-0.01-0.313-0.015-0.47-0.015c-0.158,0-0.313,0-0.463,0c0.023,0.688,0.037,1.37,0.041,2.048c0.003,0.678,0,1.359-0.007,2.047
	c0,0.099,0,0.201-0.002,0.307c-0.005,0.105,0,0.208,0.012,0.311s0.038,0.2,0.077,0.293c0.04,0.093,0.102,0.173,0.187,0.241H3.653
	c0.139,0.087,0.287,0.122,0.45,0.107c0.158-0.016,0.315-0.027,0.466-0.033C4.564,8.122,4.558,8.162,4.553,8.199
	C4.547,8.236,4.538,8.276,4.524,8.32c-0.489,0.006-0.98,0.009-1.471,0.009c-0.489,0-0.98,0.003-1.472,0.009
	c-0.012-0.044-0.014-0.087-0.008-0.13c0.006-0.043,0.003-0.087-0.009-0.13c0.181,0.013,0.367,0.014,0.559,0.004S2.484,8,2.636,7.864
	c0.066-0.148,0.102-0.3,0.102-0.455c0-0.16,0-0.321,0-0.482c0-0.7,0-1.396,0-2.09c0-0.699,0.002-1.399,0.008-2.098
	c-0.296,0-0.592,0.006-0.886,0.018C1.566,2.771,1.274,2.789,0.983,2.813c-0.084,0.019-0.17,0.042-0.254,0.069
	C0.643,2.91,0.574,2.962,0.52,3.035C0.423,3.209,0.362,3.393,0.337,3.584c0,0.012,0.003,0.026,0.007,0.042
	c0.003,0.016,0.003,0.03,0.003,0.042H0.111C0.14,3.47,0.172,3.275,0.201,3.083c0.031-0.192,0.07-0.384,0.119-0.576
	c0.871-0.075,1.74-0.114,2.605-0.116C3.791,2.388,4.66,2.426,5.532,2.507C5.58,2.699,5.624,2.891,5.66,3.083
	C5.696,3.275,5.732,3.47,5.77,3.667C5.727,3.667,5.687,3.664,5.647,3.659z"/>
<path fill="#005826" stroke="#005826" stroke-width="0.1927" d="M8.729,8.064c-0.224,0.121-0.44,0.249-0.652,0.385
	c-0.006,0-0.009-0.003-0.009-0.009H8.059C8.107,8.23,8.15,7.979,8.186,7.688c0.036-0.29,0.065-0.569,0.087-0.835
	c0.02-0.267,0.044-0.585,0.067-0.957C8.213,6.125,8.103,6.321,8.013,6.481c-0.092,0.16-0.189,0.331-0.292,0.51
	C7.618,7.172,7.528,7.326,7.448,7.456c-0.071,0.111-0.156,0.221-0.254,0.33C7.099,7.894,6.989,7.99,6.872,8.073
	C6.755,8.157,6.629,8.222,6.496,8.269C6.362,8.315,6.223,8.332,6.078,8.32C5.97,8.288,5.877,8.234,5.801,8.157
	C5.726,8.08,5.665,7.992,5.62,7.892c-0.046-0.099-0.079-0.204-0.1-0.315c-0.022-0.111-0.037-0.22-0.051-0.325
	c0.007-0.34,0.067-0.666,0.179-0.975c0.111-0.31,0.254-0.604,0.425-0.887c0.174-0.281,0.37-0.549,0.591-0.803
	c0.221-0.253,0.444-0.495,0.668-0.724C7.436,3.789,7.535,3.711,7.636,3.63c0.1-0.079,0.216-0.12,0.349-0.12
	c0.068,0.012,0.128,0.027,0.184,0.047C8.222,3.574,8.282,3.59,8.35,3.603C8.452,3.596,8.549,3.59,8.643,3.584
	c0.095-0.006,0.194-0.003,0.296,0.009c0.049,0.514,0.057,1.025,0.022,1.532c-0.034,0.508-0.077,1.02-0.132,1.533
	C8.817,6.781,8.801,6.903,8.774,7.024C8.752,7.145,8.742,7.267,8.748,7.391c0,0.074,0.001,0.158,0.004,0.25s0.052,0.155,0.141,0.186
	c0.086-0.031,0.168-0.061,0.251-0.088c0.081-0.028,0.161-0.06,0.241-0.098C9.39,7.68,9.405,7.719,9.43,7.763
	C9.188,7.843,8.954,7.943,8.729,8.064z M8.308,5.293c0.051-0.174,0.085-0.347,0.101-0.521C8.422,4.6,8.411,4.43,8.37,4.267
	C8.331,4.103,8.244,3.956,8.112,3.825l0.009,0.02C7.993,3.776,7.875,3.781,7.769,3.857c-0.11,0.079-0.21,0.156-0.301,0.237
	C7.345,4.2,7.233,4.318,7.131,4.448C7.027,4.578,6.929,4.71,6.832,4.847C6.718,5.001,6.61,5.164,6.51,5.333
	C6.41,5.505,6.325,5.68,6.259,5.859C6.127,6.211,6.044,6.58,6.015,6.964c-0.007,0.087,0.003,0.174,0.023,0.26
	c0.021,0.087,0.052,0.167,0.1,0.241C6.182,7.54,6.241,7.6,6.313,7.646c0.074,0.047,0.156,0.07,0.246,0.07
	c0.218-0.062,0.404-0.164,0.559-0.307C7.272,7.267,7.41,7.106,7.531,6.927c0.12-0.179,0.229-0.371,0.321-0.572
	c0.095-0.202,0.193-0.392,0.297-0.571C8.202,5.63,8.256,5.466,8.308,5.293z"/>
<path fill="#005826" stroke="#005826" stroke-width="0.1927" d="M11.145,5.905C11.067,6.673,11,7.447,10.946,8.227
	c-0.097,0.042-0.197,0.081-0.3,0.111c-0.104,0.032-0.207,0.053-0.31,0.065c0.108-0.731,0.178-1.459,0.205-2.187
	c0.027-0.727,0.038-1.457,0.031-2.187c-0.146,0.031-0.291,0.061-0.44,0.088C9.984,4.146,9.839,4.179,9.691,4.215V3.983
	c0.273-0.056,0.545-0.126,0.813-0.214c0.271-0.086,0.545-0.151,0.823-0.195C11.285,4.361,11.225,5.138,11.145,5.905z M11.245,3.022
	c-0.108,0.064-0.226,0.088-0.354,0.069s-0.242-0.073-0.346-0.167c-0.104-0.093-0.141-0.213-0.118-0.362
	c-0.006-0.074,0.012-0.15,0.055-0.227c0.043-0.078,0.099-0.146,0.17-0.205c0.068-0.059,0.146-0.104,0.229-0.135
	c0.085-0.031,0.168-0.037,0.246-0.019c0.066,0.031,0.114,0.071,0.145,0.12c0.031,0.05,0.053,0.106,0.067,0.168
	c0.016,0.061,0.023,0.128,0.028,0.199c0.004,0.071,0.011,0.141,0.021,0.209C11.403,2.841,11.354,2.958,11.245,3.022z"/>
<path fill="#005826" stroke="#005826" stroke-width="0.1927" d="M14.166,0.404c-0.059,0.021-0.129,0.048-0.21,0.079
	c-0.081,0.03-0.146,0.049-0.195,0.055c-0.091,0.106-0.165,0.243-0.223,0.413c-0.058,0.171-0.109,0.359-0.154,0.567
	c-0.046,0.208-0.087,0.427-0.123,0.66c-0.036,0.231-0.078,0.462-0.126,0.691c-0.104,0.508-0.179,0.986-0.232,1.435
	c-0.052,0.449-0.087,0.884-0.104,1.305c-0.02,0.421-0.026,0.84-0.023,1.258c0.004,0.417,0.01,0.846,0.023,1.286
	c0.15,0.006,0.33-0.011,0.536-0.051c0.204-0.041,0.378-0.088,0.517-0.144v0.334c-0.248,0.063-0.499,0.106-0.755,0.13
	c-0.253,0.025-0.505-0.006-0.752-0.093c0-0.742-0.003-1.48-0.008-2.214c-0.007-0.734,0.025-1.468,0.1-2.206
	c0.041-0.414,0.076-0.769,0.107-1.063c0.029-0.294,0.062-0.576,0.101-0.844c0.034-0.271,0.078-0.55,0.126-0.841
	c0.051-0.29,0.111-0.64,0.191-1.048c0.104-0.013,0.228-0.017,0.376-0.015c0.149,0.004,0.291,0.009,0.428,0.015
	s0.297,0.018,0.486,0.037l0.008,0.213C14.255,0.369,14.222,0.382,14.166,0.404z"/>
<path fill="#005826" stroke="#005826" stroke-width="0.1927" d="M16.354,0.404c-0.058,0.021-0.128,0.048-0.209,0.079
	c-0.083,0.03-0.148,0.049-0.195,0.055c-0.091,0.106-0.165,0.243-0.223,0.413c-0.058,0.171-0.108,0.359-0.154,0.567
	s-0.086,0.427-0.124,0.66c-0.034,0.231-0.077,0.462-0.126,0.691c-0.103,0.508-0.181,0.986-0.232,1.435
	c-0.051,0.449-0.086,0.884-0.104,1.305c-0.02,0.421-0.025,0.84-0.022,1.258c0.003,0.417,0.009,0.846,0.022,1.286
	c0.15,0.006,0.33-0.011,0.536-0.051c0.204-0.041,0.379-0.088,0.517-0.144v0.334c-0.249,0.063-0.5,0.106-0.753,0.13
	c-0.256,0.025-0.505-0.006-0.755-0.093c0-0.742-0.003-1.48-0.009-2.214c-0.005-0.734,0.026-1.468,0.101-2.206
	c0.043-0.414,0.079-0.769,0.109-1.063c0.028-0.294,0.062-0.576,0.1-0.844c0.035-0.271,0.078-0.55,0.126-0.841
	c0.049-0.29,0.112-0.64,0.192-1.048c0.103-0.013,0.227-0.017,0.376-0.015c0.148,0.004,0.291,0.009,0.427,0.015
	c0.136,0.006,0.299,0.018,0.486,0.037l0.01,0.213C16.443,0.369,16.412,0.382,16.354,0.404z"/>
<path fill="#005826" stroke="#005826" stroke-width="0.1927" d="M19.266,7.312c-0.097,0.208-0.221,0.393-0.369,0.557
	c-0.149,0.164-0.318,0.295-0.507,0.394c-0.192,0.099-0.399,0.146-0.624,0.14c-0.236-0.006-0.445-0.073-0.631-0.199
	c-0.184-0.127-0.342-0.287-0.467-0.479c-0.128-0.192-0.225-0.404-0.287-0.636c-0.063-0.232-0.093-0.456-0.086-0.673
	c0.006-0.285,0.04-0.588,0.1-0.91c0.061-0.322,0.158-0.623,0.295-0.901c0.136-0.279,0.313-0.519,0.531-0.724
	c0.218-0.205,0.49-0.335,0.817-0.391c0.248,0,0.454,0.07,0.617,0.21c0.164,0.139,0.287,0.312,0.371,0.52
	c0.086,0.208,0.133,0.431,0.139,0.669c0.007,0.238-0.022,0.456-0.082,0.654c-0.352,0.105-0.705,0.195-1.063,0.269
	c-0.355,0.074-0.716,0.13-1.081,0.167c-0.03,0.137-0.048,0.264-0.056,0.381c-0.004,0.174,0.014,0.356,0.056,0.548
	c0.044,0.193,0.112,0.369,0.204,0.53c0.096,0.16,0.213,0.297,0.354,0.409c0.144,0.111,0.313,0.173,0.514,0.186
	c0.17-0.006,0.327-0.052,0.473-0.135c0.145-0.083,0.273-0.188,0.382-0.315c0.108-0.126,0.197-0.27,0.262-0.431
	c0.067-0.162,0.111-0.322,0.129-0.483c0.035,0,0.07,0.001,0.103,0.004c0.034,0.003,0.068,0.008,0.105,0.014
	C19.427,6.896,19.36,7.105,19.266,7.312z M18.338,3.751c-0.091-0.062-0.188-0.092-0.292-0.092c-0.102,0-0.192,0.022-0.275,0.069
	c-0.082,0.047-0.155,0.106-0.223,0.176c-0.066,0.071-0.125,0.152-0.173,0.242c-0.049,0.088-0.089,0.178-0.127,0.264
	c-0.085,0.198-0.151,0.401-0.2,0.609C17,5.227,16.966,5.438,16.947,5.655l0.019,0.092c0.165-0.024,0.328-0.046,0.491-0.064
	c0.164-0.02,0.328-0.041,0.489-0.065c0.183-0.025,0.328-0.096,0.438-0.214c0.108-0.117,0.186-0.256,0.229-0.417
	c0.047-0.161,0.061-0.329,0.042-0.506c-0.017-0.177-0.063-0.335-0.136-0.479C18.489,3.896,18.428,3.813,18.338,3.751z"/>
<path fill="#005826" stroke="#005826" stroke-width="0.1927" d="M27.838,7.335c-0.062,0.13-0.137,0.252-0.229,0.362
	c-0.106,0.205-0.259,0.357-0.453,0.46c-0.193,0.102-0.396,0.158-0.607,0.167c-0.212,0.009-0.422-0.032-0.628-0.12
	c-0.205-0.09-0.372-0.226-0.499-0.404c-0.212,0.217-0.464,0.371-0.759,0.464c-0.293,0.093-0.588,0.126-0.88,0.097
	c-0.295-0.027-0.57-0.119-0.827-0.273c-0.259-0.155-0.459-0.375-0.603-0.659c-0.086-0.112-0.151-0.234-0.201-0.367
	c-0.048-0.133-0.077-0.27-0.085-0.409c-0.01-0.14,0.003-0.275,0.034-0.409c0.034-0.133,0.093-0.258,0.179-0.375
	c0.15-0.217,0.334-0.402,0.554-0.553c0.218-0.152,0.445-0.28,0.68-0.385c-0.054-0.124-0.103-0.253-0.144-0.385
	c-0.043-0.133-0.089-0.265-0.137-0.395l0.008,0.009c-0.065-0.205-0.083-0.413-0.049-0.623c0.032-0.21,0.103-0.404,0.209-0.584
	c0.105-0.18,0.243-0.334,0.413-0.464s0.354-0.217,0.554-0.26c0.169-0.037,0.341-0.034,0.513,0.009
	c0.174,0.044,0.329,0.116,0.468,0.218c0.14,0.103,0.256,0.23,0.352,0.381c0.092,0.151,0.143,0.317,0.149,0.497
	c0.011,0.266-0.07,0.501-0.247,0.706c-0.168,0.198-0.366,0.355-0.594,0.473s-0.454,0.227-0.687,0.325
	c0.224,0.391,0.458,0.773,0.7,1.147s0.497,0.744,0.764,1.109c0.144-0.179,0.281-0.368,0.406-0.566
	c0.128-0.198,0.226-0.412,0.293-0.641c0.022-0.123,0.008-0.229-0.045-0.316c-0.056-0.086-0.129-0.154-0.22-0.204
	c-0.092-0.049-0.191-0.083-0.303-0.102c-0.113-0.019-0.215-0.024-0.305-0.019v-0.27c0.394,0,0.786,0.004,1.176,0.009
	c0.39,0.006,0.782,0.006,1.176,0v0.297c-0.139,0.007-0.275,0.031-0.408,0.074C27.423,5.4,27.301,5.47,27.192,5.562
	c-0.084,0.105-0.162,0.217-0.231,0.334c-0.069,0.118-0.144,0.232-0.223,0.344V6.231c-0.114,0.179-0.228,0.361-0.339,0.547
	c-0.114,0.186-0.247,0.352-0.405,0.501v0.083c0.079,0.068,0.155,0.135,0.23,0.2c0.077,0.065,0.157,0.125,0.241,0.181
	c0.055,0.037,0.116,0.06,0.183,0.07c0.065,0.01,0.132,0.01,0.2,0.005c0.114-0.006,0.221-0.035,0.322-0.088
	c0.1-0.053,0.187-0.12,0.263-0.204c0.075-0.083,0.143-0.178,0.199-0.283c0.058-0.105,0.105-0.21,0.142-0.315
	c0.037,0,0.072,0,0.107,0c0.044,0,0.083,0.003,0.12,0.009C27.952,7.072,27.897,7.206,27.838,7.335z M24.377,6.481
	c-0.284-0.39-0.536-0.808-0.754-1.253L23.56,5.199c-0.229,0.068-0.402,0.192-0.519,0.372c-0.114,0.18-0.181,0.376-0.198,0.59
	c-0.02,0.213,0.011,0.428,0.087,0.645c0.074,0.217,0.186,0.4,0.331,0.548c0.109,0.161,0.249,0.29,0.422,0.386
	c0.173,0.096,0.353,0.154,0.541,0.177C24.41,7.938,24.6,7.924,24.79,7.874s0.36-0.136,0.505-0.26
	C24.968,7.249,24.663,6.871,24.377,6.481z M25.24,3.018c-0.042-0.105-0.102-0.198-0.177-0.279c-0.077-0.081-0.165-0.141-0.264-0.181
	c-0.101-0.041-0.209-0.055-0.323-0.043c-0.192,0.056-0.338,0.173-0.436,0.353c-0.098,0.18-0.151,0.365-0.163,0.558
	c-0.013,0.198,0.02,0.39,0.095,0.575c0.077,0.186,0.156,0.369,0.24,0.548l0.046,0.046c0.298-0.074,0.548-0.226,0.754-0.455
	c0.097-0.111,0.168-0.237,0.214-0.375c0.046-0.14,0.072-0.28,0.078-0.422C25.305,3.231,25.282,3.123,25.24,3.018z"/>
<path fill="#005826" stroke="#005826" stroke-width="0.1927" d="M33.295,7.177c-0.042,0.105-0.089,0.208-0.146,0.307
	c-0.103,0.241-0.256,0.438-0.458,0.588c-0.202,0.153-0.423,0.251-0.663,0.298c-0.238,0.046-0.479,0.035-0.722-0.033
	s-0.45-0.201-0.626-0.399c-0.014-0.223-0.017-0.444-0.011-0.664c0.007-0.22,0.017-0.441,0.028-0.664
	c0.029,0.013,0.061,0.022,0.095,0.028c0.033,0.007,0.065,0.01,0.096,0.01v0.009l-0.01,0.055l0.01,0.093
	c-0.013,0.056-0.016,0.113-0.013,0.172s-0.003,0.116-0.015,0.172c0.012,0.179,0.066,0.353,0.163,0.52
	c0.099,0.167,0.221,0.304,0.372,0.409l-0.007-0.01c0.076,0.068,0.166,0.116,0.267,0.145c0.101,0.028,0.2,0.038,0.301,0.028
	c0.1-0.009,0.197-0.036,0.289-0.079c0.095-0.043,0.178-0.102,0.249-0.176c0.079-0.076,0.146-0.163,0.2-0.266
	c0.055-0.102,0.095-0.208,0.115-0.315c0.019-0.108,0.022-0.217,0.004-0.325c-0.019-0.108-0.064-0.209-0.137-0.302
	c-0.127-0.167-0.283-0.313-0.469-0.437c-0.185-0.124-0.359-0.253-0.525-0.39c-0.166-0.136-0.31-0.288-0.432-0.455
	c-0.119-0.166-0.18-0.373-0.18-0.621c0-0.172,0.033-0.34,0.101-0.501c0.066-0.161,0.15-0.307,0.253-0.436
	c0.146-0.18,0.335-0.303,0.568-0.367c0.233-0.065,0.456-0.055,0.667,0.032c0.036-0.019,0.076-0.024,0.119-0.019
	c0.043,0.006,0.08,0.016,0.117,0.028l-0.037,0.037c0.021,0.167,0.032,0.334,0.042,0.502c0.01,0.168,0.02,0.334,0.031,0.501
	c-0.029-0.006-0.062-0.013-0.095-0.018c-0.034-0.006-0.068-0.01-0.104-0.01c0-0.192-0.041-0.38-0.124-0.566
	c-0.081-0.186-0.214-0.312-0.402-0.381c-0.176,0.031-0.325,0.124-0.445,0.279c-0.12,0.155-0.183,0.319-0.183,0.492
	c0,0.198,0.043,0.368,0.127,0.51c0.086,0.143,0.193,0.27,0.323,0.381C32.159,5.45,32.3,5.556,32.45,5.655
	c0.151,0.098,0.294,0.204,0.429,0.315c0.132,0.111,0.244,0.236,0.33,0.375c0.088,0.14,0.134,0.308,0.141,0.506
	C33.355,6.964,33.337,7.072,33.295,7.177z"/>
<path fill="#005826" stroke="#005826" stroke-width="0.1927" d="M37.068,6.504c-0.08,0.344-0.21,0.658-0.386,0.943
	c-0.175,0.284-0.397,0.519-0.668,0.705c-0.27,0.186-0.582,0.281-0.939,0.288c-0.141,0-0.27-0.024-0.39-0.074
	c-0.122-0.049-0.243-0.105-0.364-0.167h0.009c-0.089-0.062-0.162-0.139-0.213-0.232c-0.052-0.093-0.102-0.186-0.149-0.279
	c-0.066-0.142-0.114-0.288-0.141-0.44c-0.027-0.152-0.046-0.305-0.06-0.459c-0.03-0.353-0.008-0.723,0.072-1.109
	c0.079-0.387,0.214-0.742,0.405-1.063c0.189-0.323,0.437-0.587,0.734-0.794c0.299-0.208,0.653-0.305,1.059-0.292
	c0.116,0.007,0.221,0.042,0.318,0.106c0.097,0.065,0.182,0.139,0.254,0.219c0.169,0.241,0.299,0.504,0.385,0.789
	c0.088,0.285,0.143,0.576,0.16,0.873C37.178,5.831,37.151,6.161,37.068,6.504z M36.519,5.265c-0.023-0.235-0.076-0.458-0.16-0.669
	c-0.08-0.21-0.195-0.393-0.344-0.548c-0.148-0.154-0.342-0.25-0.585-0.287c-0.134,0.031-0.244,0.09-0.337,0.177
	c-0.091,0.086-0.167,0.187-0.226,0.301c-0.062,0.115-0.111,0.237-0.15,0.367c-0.041,0.13-0.077,0.254-0.113,0.372
	c-0.067,0.229-0.111,0.461-0.137,0.697c-0.024,0.234-0.04,0.471-0.045,0.705c0,0.174,0.01,0.362,0.031,0.567
	s0.064,0.396,0.133,0.576c0.066,0.179,0.164,0.335,0.29,0.469c0.126,0.133,0.297,0.212,0.509,0.237
	c0.254-0.043,0.458-0.149,0.612-0.317c0.155-0.167,0.274-0.361,0.354-0.584c0.082-0.223,0.138-0.458,0.163-0.706
	c0.028-0.247,0.043-0.48,0.043-0.696C36.557,5.72,36.543,5.5,36.519,5.265z"/>
<path fill="#005826" stroke="#005826" stroke-width="0.1927" d="M38.909,5.905c-0.08,0.768-0.146,1.542-0.2,2.322
	c-0.098,0.042-0.198,0.081-0.301,0.111C38.306,8.37,38.203,8.391,38.1,8.403c0.109-0.731,0.177-1.459,0.205-2.187
	c0.025-0.727,0.037-1.457,0.031-2.187C38.19,4.06,38.044,4.09,37.895,4.117c-0.149,0.029-0.294,0.061-0.44,0.098V3.983
	c0.272-0.056,0.544-0.126,0.813-0.214c0.271-0.086,0.544-0.151,0.822-0.195C39.046,4.361,38.986,5.138,38.909,5.905z M39.008,3.022
	c-0.109,0.064-0.228,0.088-0.354,0.069c-0.128-0.019-0.244-0.073-0.345-0.167c-0.104-0.093-0.144-0.213-0.12-0.362
	c-0.006-0.074,0.014-0.15,0.055-0.227c0.043-0.078,0.099-0.146,0.169-0.205c0.069-0.059,0.146-0.104,0.231-0.135
	c0.084-0.031,0.167-0.037,0.245-0.019c0.067,0.031,0.115,0.071,0.146,0.12c0.03,0.05,0.054,0.106,0.068,0.168
	c0.015,0.061,0.022,0.128,0.026,0.199c0.003,0.071,0.012,0.141,0.022,0.209C39.166,2.841,39.118,2.958,39.008,3.022z"/>
<path fill="#005826" stroke="#005826" stroke-width="0.1927" d="M44.085,7.781c0,0.038-0.008,0.078-0.02,0.122
	c-0.247,0.049-0.487,0.122-0.717,0.218s-0.451,0.215-0.663,0.357c-0.014-0.013-0.027-0.024-0.045-0.033
	c-0.02-0.009-0.034-0.02-0.046-0.032c0.218-0.675,0.35-1.365,0.399-2.071c0.048-0.706,0.048-1.414,0-2.126
	c-0.067,0.074-0.127,0.148-0.182,0.223c-0.055,0.074-0.114,0.151-0.182,0.232c-0.218,0.26-0.437,0.528-0.657,0.803
	c-0.222,0.276-0.424,0.564-0.605,0.864c-0.181,0.301-0.329,0.615-0.444,0.942c-0.114,0.329-0.17,0.675-0.164,1.041
	c-0.077-0.012-0.157-0.019-0.234-0.019c-0.074,0-0.149-0.01-0.228-0.028c-0.068-0.693-0.079-1.383-0.037-2.071
	c0.044-0.687,0.115-1.374,0.217-2.061c-0.131,0.031-0.26,0.07-0.385,0.116c-0.124,0.046-0.252,0.088-0.387,0.125
	c0.008-0.043,0.011-0.086,0.015-0.129c0.003-0.044,0.011-0.087,0.022-0.13c0.261-0.037,0.516-0.102,0.765-0.196
	c0.246-0.093,0.484-0.213,0.707-0.361c-0.091,0.557-0.183,1.11-0.272,1.662c-0.091,0.551-0.131,1.111-0.118,1.68
	c0.116-0.222,0.233-0.443,0.354-0.658c0.121-0.217,0.251-0.431,0.391-0.641c0.23-0.347,0.479-0.676,0.744-0.99
	c0.267-0.312,0.528-0.635,0.782-0.97c0.145,0.006,0.297,0.025,0.453,0.056c0.086,0.693,0.104,1.384,0.061,2.075
	c-0.047,0.69-0.12,1.379-0.224,2.066c0.121-0.038,0.241-0.068,0.358-0.093c0.118-0.024,0.238-0.056,0.359-0.093
	C44.091,7.704,44.085,7.744,44.085,7.781z"/>
<path fill="#005826" stroke="#005826" stroke-width="0.1927" d="M47.153,7.177c-0.042,0.105-0.092,0.208-0.145,0.307
	c-0.104,0.241-0.257,0.438-0.46,0.588c-0.201,0.153-0.423,0.251-0.661,0.298c-0.241,0.046-0.481,0.035-0.723-0.033
	c-0.243-0.068-0.453-0.201-0.628-0.399c-0.011-0.223-0.014-0.444-0.009-0.664c0.006-0.22,0.017-0.441,0.028-0.664
	c0.03,0.013,0.061,0.022,0.096,0.028c0.033,0.007,0.065,0.01,0.094,0.01v0.009l-0.009,0.055l0.009,0.093
	c-0.012,0.056-0.017,0.113-0.014,0.172s-0.001,0.116-0.012,0.172c0.011,0.179,0.066,0.353,0.163,0.52
	c0.095,0.167,0.221,0.304,0.372,0.409l-0.01-0.01c0.079,0.068,0.168,0.116,0.269,0.145c0.1,0.028,0.2,0.038,0.3,0.028
	c0.099-0.009,0.196-0.036,0.291-0.079c0.094-0.043,0.177-0.102,0.249-0.176c0.078-0.076,0.146-0.163,0.2-0.266
	c0.055-0.102,0.091-0.208,0.112-0.315c0.021-0.108,0.023-0.217,0.006-0.325c-0.018-0.108-0.063-0.209-0.136-0.302
	c-0.128-0.167-0.284-0.313-0.47-0.437c-0.184-0.124-0.359-0.253-0.524-0.39c-0.169-0.136-0.312-0.288-0.433-0.455
	c-0.12-0.167-0.182-0.375-0.182-0.623c0-0.172,0.032-0.34,0.1-0.501c0.067-0.161,0.151-0.307,0.254-0.436
	c0.146-0.18,0.335-0.303,0.567-0.367c0.233-0.065,0.456-0.055,0.667,0.032c0.038-0.019,0.078-0.024,0.119-0.019
	c0.043,0.006,0.082,0.016,0.119,0.028l-0.037,0.037c0.018,0.167,0.031,0.334,0.04,0.502c0.01,0.167,0.021,0.334,0.032,0.501
	c-0.029-0.006-0.062-0.013-0.095-0.018c-0.034-0.006-0.068-0.01-0.104-0.01c0-0.192-0.042-0.38-0.124-0.566
	c-0.08-0.186-0.216-0.312-0.402-0.381c-0.177,0.031-0.325,0.124-0.444,0.279c-0.123,0.155-0.183,0.319-0.183,0.492
	c0,0.198,0.042,0.368,0.126,0.51c0.086,0.143,0.194,0.27,0.324,0.381c0.129,0.111,0.27,0.217,0.421,0.316
	c0.152,0.098,0.294,0.204,0.427,0.315c0.135,0.111,0.243,0.236,0.333,0.375c0.086,0.14,0.134,0.308,0.14,0.506
	C47.213,6.964,47.195,7.072,47.153,7.177z"/>
<path fill="#005826" stroke="#005826" stroke-width="0.1927" d="M52.367,7.962c-0.184,0.158-0.378,0.286-0.59,0.385
	c-0.116,0.05-0.233,0.09-0.355,0.121c-0.121,0.031-0.244,0.038-0.373,0.019c-0.253-0.092-0.455-0.235-0.604-0.426
	c-0.147-0.192-0.257-0.409-0.331-0.651c-0.072-0.241-0.112-0.492-0.118-0.751c-0.005-0.26,0.01-0.507,0.046-0.743
	c0.029-0.216,0.075-0.435,0.14-0.655c0.064-0.22,0.15-0.427,0.26-0.622c0.108-0.195,0.239-0.373,0.39-0.534
	c0.152-0.162,0.33-0.291,0.535-0.39l0.056-0.037l0.008-0.01l0.092-0.037l0.009,0.01c0.049-0.013,0.099-0.027,0.151-0.042
	c0.051-0.015,0.101-0.014,0.148,0.005l0.037,0.074h-0.009c-0.036,0.05-0.081,0.087-0.137,0.112c-0.02,0.006-0.034,0.012-0.051,0.018
	c-0.015,0.007-0.031,0.013-0.049,0.019l-0.027,0.02l-0.09,0.027v0.009L51.43,3.938v-0.01c-0.155,0.13-0.282,0.282-0.375,0.455
	c-0.094,0.174-0.168,0.358-0.224,0.553c-0.054,0.194-0.094,0.395-0.123,0.598c-0.026,0.205-0.052,0.403-0.077,0.594
	c0,0.186,0.006,0.385,0.015,0.599c0.009,0.214,0.042,0.417,0.1,0.613c0.057,0.195,0.146,0.37,0.266,0.524
	c0.117,0.155,0.282,0.263,0.494,0.325c0.277-0.049,0.497-0.162,0.656-0.338c0.161-0.177,0.283-0.382,0.364-0.618
	c0.083-0.234,0.136-0.484,0.164-0.751c0.027-0.267,0.047-0.514,0.058-0.743c0.019-0.464-0.051-0.913-0.214-1.347
	c-0.158-0.433-0.35-0.851-0.565-1.253c-0.085-0.148-0.184-0.314-0.297-0.497c-0.111-0.183-0.238-0.343-0.375-0.483
	C51.155,2.02,51.005,1.92,50.84,1.862c-0.161-0.059-0.335-0.039-0.516,0.06l-0.083-0.139c0.139-0.105,0.278-0.207,0.418-0.306
	c0.139-0.099,0.281-0.191,0.427-0.278c0.31,0.248,0.585,0.522,0.825,0.827c0.243,0.302,0.47,0.622,0.683,0.956
	c0.2,0.328,0.364,0.681,0.495,1.059c0.13,0.377,0.212,0.761,0.244,1.151c0.033,0.39,0.013,0.778-0.063,1.165
	c-0.074,0.388-0.216,0.75-0.421,1.092C52.708,7.633,52.547,7.804,52.367,7.962z"/>
<path fill="#005826" stroke="#005826" stroke-width="0.1927" d="M56.753,7.312c-0.098,0.208-0.222,0.393-0.367,0.557
	c-0.149,0.164-0.319,0.295-0.511,0.394c-0.189,0.099-0.396,0.146-0.62,0.14c-0.237-0.006-0.446-0.073-0.63-0.199
	c-0.187-0.127-0.342-0.287-0.47-0.479c-0.127-0.192-0.222-0.404-0.286-0.636c-0.063-0.232-0.092-0.456-0.087-0.673
	c0.006-0.285,0.04-0.588,0.101-0.91c0.062-0.322,0.16-0.623,0.295-0.901c0.137-0.279,0.314-0.519,0.531-0.724
	c0.218-0.205,0.49-0.335,0.817-0.391c0.249,0,0.454,0.07,0.619,0.21c0.162,0.139,0.285,0.312,0.371,0.52
	c0.083,0.208,0.131,0.431,0.137,0.669s-0.022,0.456-0.082,0.654c-0.353,0.105-0.706,0.195-1.062,0.269
	c-0.356,0.074-0.718,0.13-1.08,0.167c-0.031,0.137-0.049,0.264-0.056,0.381c-0.006,0.174,0.014,0.356,0.056,0.548
	c0.041,0.193,0.11,0.369,0.204,0.53c0.095,0.16,0.213,0.297,0.354,0.409C55.13,7.958,55.299,8.02,55.5,8.033
	c0.17-0.006,0.327-0.052,0.473-0.135s0.272-0.188,0.381-0.315c0.109-0.126,0.197-0.27,0.264-0.431
	c0.066-0.162,0.109-0.322,0.128-0.483c0.036,0,0.07,0.001,0.103,0.004c0.035,0.003,0.068,0.008,0.106,0.014
	C56.915,6.896,56.85,7.105,56.753,7.312z M55.826,3.751c-0.09-0.062-0.188-0.092-0.29-0.092c-0.104,0-0.195,0.022-0.277,0.069
	s-0.156,0.106-0.222,0.176c-0.067,0.071-0.124,0.152-0.173,0.242c-0.05,0.088-0.091,0.178-0.129,0.264
	c-0.084,0.198-0.15,0.401-0.199,0.609c-0.048,0.208-0.08,0.419-0.1,0.636l0.02,0.092c0.161-0.024,0.326-0.046,0.488-0.064
	c0.165-0.02,0.328-0.041,0.491-0.065c0.182-0.025,0.327-0.096,0.437-0.214c0.108-0.117,0.187-0.256,0.231-0.417
	c0.045-0.161,0.059-0.329,0.042-0.506c-0.019-0.177-0.065-0.335-0.139-0.479C55.979,3.896,55.917,3.813,55.826,3.751z"/>
<path fill="#005826" stroke="#005826" stroke-width="0.1927" d="M59.977,7.177c-0.042,0.105-0.09,0.208-0.145,0.307
	c-0.103,0.241-0.257,0.438-0.458,0.588c-0.204,0.153-0.425,0.251-0.662,0.298c-0.24,0.046-0.481,0.035-0.725-0.033
	c-0.24-0.068-0.45-0.201-0.627-0.399c-0.013-0.223-0.014-0.444-0.008-0.664c0.006-0.22,0.015-0.441,0.028-0.664
	c0.029,0.013,0.062,0.022,0.095,0.028c0.033,0.007,0.064,0.01,0.094,0.01v0.009L57.56,6.712l0.009,0.093
	c-0.012,0.056-0.016,0.113-0.013,0.172s-0.002,0.116-0.014,0.172c0.012,0.179,0.067,0.353,0.164,0.52s0.221,0.304,0.372,0.409
	l-0.01-0.01c0.078,0.068,0.169,0.116,0.27,0.145c0.1,0.028,0.199,0.038,0.299,0.028c0.101-0.009,0.196-0.036,0.289-0.079
	c0.096-0.043,0.178-0.102,0.252-0.176c0.077-0.076,0.144-0.163,0.199-0.266c0.053-0.102,0.091-0.208,0.114-0.315
	c0.02-0.108,0.021-0.217,0.003-0.325s-0.064-0.209-0.135-0.302c-0.128-0.167-0.284-0.313-0.468-0.437
	c-0.187-0.124-0.362-0.253-0.527-0.39c-0.167-0.136-0.312-0.288-0.433-0.455c-0.119-0.167-0.181-0.375-0.181-0.623
	c0-0.172,0.033-0.34,0.1-0.501c0.066-0.161,0.151-0.307,0.255-0.436c0.145-0.18,0.334-0.303,0.567-0.367
	c0.232-0.065,0.456-0.055,0.668,0.032c0.036-0.019,0.075-0.024,0.118-0.019c0.041,0.006,0.08,0.016,0.118,0.028L59.54,3.649
	c0.02,0.167,0.032,0.334,0.042,0.502c0.01,0.168,0.019,0.334,0.032,0.501c-0.031-0.006-0.062-0.013-0.096-0.018
	c-0.033-0.006-0.068-0.01-0.104-0.01c0-0.192-0.04-0.38-0.123-0.566c-0.081-0.186-0.216-0.312-0.403-0.381
	c-0.175,0.031-0.324,0.124-0.445,0.279c-0.121,0.155-0.183,0.319-0.183,0.492c0,0.198,0.043,0.368,0.128,0.51
	c0.086,0.143,0.192,0.27,0.324,0.381c0.129,0.111,0.27,0.217,0.421,0.316c0.151,0.098,0.293,0.204,0.427,0.315
	c0.133,0.111,0.243,0.236,0.33,0.375c0.089,0.14,0.135,0.308,0.141,0.506C60.038,6.964,60.019,7.072,59.977,7.177z"/>
<path fill="#005826" stroke="#005826" stroke-width="0.1927" d="M65.943,8.064c-0.224,0.121-0.442,0.249-0.654,0.385
	c-0.006,0-0.009-0.003-0.009-0.009h-0.009c0.048-0.21,0.09-0.461,0.126-0.752c0.038-0.29,0.066-0.569,0.087-0.835
	c0.022-0.267,0.045-0.585,0.068-0.957c-0.127,0.229-0.236,0.425-0.327,0.585s-0.187,0.331-0.29,0.51
	c-0.104,0.181-0.193,0.335-0.271,0.465c-0.074,0.111-0.16,0.221-0.255,0.33c-0.098,0.108-0.204,0.205-0.322,0.287
	c-0.119,0.084-0.245,0.149-0.379,0.196c-0.131,0.046-0.271,0.063-0.416,0.051c-0.109-0.032-0.203-0.085-0.278-0.163
	s-0.136-0.165-0.182-0.265c-0.045-0.099-0.077-0.205-0.099-0.315c-0.021-0.111-0.038-0.22-0.051-0.325
	c0.007-0.34,0.065-0.666,0.178-0.975c0.11-0.31,0.254-0.604,0.426-0.887c0.174-0.281,0.37-0.549,0.591-0.803
	c0.222-0.253,0.443-0.495,0.667-0.724c0.104-0.074,0.203-0.152,0.305-0.233c0.1-0.079,0.217-0.12,0.35-0.12
	c0.067,0.012,0.128,0.027,0.183,0.047c0.055,0.018,0.114,0.034,0.181,0.046c0.104-0.006,0.2-0.012,0.295-0.019
	c0.094-0.006,0.192-0.003,0.295,0.009c0.049,0.514,0.058,1.025,0.023,1.532c-0.032,0.508-0.077,1.019-0.132,1.532
	c-0.012,0.124-0.029,0.246-0.055,0.366c-0.023,0.121-0.034,0.243-0.025,0.367c0,0.074,0,0.158,0.002,0.25
	c0.003,0.093,0.051,0.155,0.141,0.186c0.086-0.031,0.17-0.061,0.251-0.088c0.081-0.027,0.161-0.06,0.241-0.098
	c0.006,0.038,0.02,0.078,0.045,0.121C66.4,7.843,66.166,7.943,65.943,8.064z M65.521,5.293c0.051-0.174,0.083-0.347,0.1-0.521
	c0.015-0.172,0.003-0.342-0.037-0.506c-0.039-0.164-0.125-0.311-0.258-0.441l0.009,0.02c-0.127-0.068-0.246-0.064-0.354,0.013
	c-0.109,0.079-0.21,0.156-0.3,0.237C64.56,4.2,64.448,4.318,64.346,4.448c-0.104,0.13-0.203,0.262-0.3,0.399
	c-0.115,0.154-0.223,0.317-0.322,0.486c-0.101,0.171-0.186,0.347-0.251,0.525c-0.133,0.353-0.215,0.721-0.246,1.105
	c-0.006,0.087,0.004,0.174,0.023,0.26c0.021,0.087,0.056,0.167,0.1,0.241c0.046,0.075,0.105,0.134,0.178,0.181
	s0.154,0.07,0.246,0.07c0.218-0.062,0.403-0.164,0.558-0.307c0.154-0.142,0.293-0.303,0.413-0.482
	c0.121-0.179,0.229-0.371,0.323-0.572c0.093-0.202,0.191-0.392,0.294-0.571C65.417,5.63,65.469,5.466,65.521,5.293z"/>
<path fill="#005826" stroke="#005826" stroke-width="0.1927" d="M69.971,4.433c-0.075,0.01-0.146,0.033-0.214,0.07
	c-0.066,0.038-0.126,0.084-0.185,0.14c-0.059,0.056-0.109,0.114-0.151,0.177c-0.132,0.185-0.248,0.384-0.344,0.594
	c-0.097,0.21-0.188,0.423-0.272,0.641c-0.304,0.754-0.519,1.522-0.645,2.302c-0.067,0.006-0.131,0.003-0.192-0.009
	c-0.06-0.012-0.123-0.021-0.19-0.027c-0.013-0.707,0-1.407,0.037-2.104c0.036-0.696,0.088-1.394,0.153-2.093
	c-0.162,0.056-0.328,0.105-0.495,0.148c-0.166,0.043-0.33,0.092-0.493,0.148c0-0.05,0.005-0.096,0.018-0.14
	c0.012-0.043,0.018-0.09,0.018-0.139c0.272-0.068,0.539-0.149,0.804-0.242c0.264-0.093,0.522-0.194,0.777-0.306
	c-0.012,0.446-0.04,0.892-0.082,1.337c-0.043,0.446-0.048,0.891-0.018,1.337c0.114-0.254,0.22-0.51,0.317-0.766
	c0.098-0.257,0.203-0.513,0.318-0.766h-0.009c0.06-0.086,0.11-0.19,0.155-0.311c0.039-0.122,0.089-0.234,0.143-0.339
	c0.056-0.106,0.124-0.194,0.204-0.265c0.083-0.071,0.193-0.104,0.332-0.097c0.02,0,0.037,0.004,0.055,0.014
	c0.019,0.009,0.036,0.017,0.054,0.023c0.032,0.118,0.055,0.235,0.069,0.353c0.015,0.118,0.034,0.235,0.06,0.353
	C70.121,4.436,70.048,4.425,69.971,4.433z"/>
<path fill="#005826" stroke="#005826" stroke-width="0.1927" d="M73.966,4.772c0.059,0.285,0.069,0.573,0.038,0.864
	C73.97,5.927,73.9,6.215,73.795,6.5c-0.106,0.285-0.224,0.551-0.35,0.798c-0.079,0.143-0.163,0.282-0.255,0.418
	c-0.092,0.136-0.194,0.262-0.309,0.38s-0.238,0.222-0.373,0.311c-0.132,0.09-0.277,0.157-0.436,0.2
	c-0.145,0.024-0.287,0.019-0.426-0.019c-0.14-0.037-0.271-0.092-0.392-0.167c-0.121-0.074-0.237-0.161-0.349-0.26
	S70.691,7.96,70.6,7.855c-0.013-0.483-0.009-0.966,0.012-1.449c0.022-0.482,0.042-0.966,0.062-1.449
	c0.012-0.426,0.041-0.84,0.089-1.239c0.051-0.399,0.11-0.792,0.182-1.18c0.072-0.387,0.16-0.773,0.26-1.16
	c0.101-0.387,0.208-0.788,0.322-1.202c0.188-0.025,0.375-0.038,0.563-0.038s0.375,0.006,0.562,0.02c0,0.03,0,0.061,0,0.092
	c0,0.025,0.003,0.052,0.01,0.083c-0.056-0.006-0.109-0.009-0.165-0.009c-0.054,0-0.108,0.009-0.163,0.028l-0.081,0.056h0.01
	c-0.032,0.019-0.061,0.035-0.092,0.051c-0.029,0.016-0.06,0.036-0.091,0.061c-0.072,0.093-0.145,0.255-0.218,0.487
	c-0.072,0.232-0.142,0.5-0.208,0.804c-0.067,0.302-0.128,0.624-0.183,0.961s-0.101,0.66-0.141,0.97
	c-0.04,0.309-0.069,0.59-0.095,0.84c-0.024,0.25-0.037,0.436-0.037,0.553c-0.012,0.377-0.019,0.752-0.019,1.123
	c0,0.366,0.007,0.738,0.019,1.114c0,0.13,0.029,0.256,0.091,0.376c0.061,0.122,0.133,0.228,0.219,0.32
	c0.084,0.093,0.185,0.169,0.299,0.228c0.114,0.059,0.237,0.085,0.363,0.079c0.235-0.062,0.43-0.172,0.582-0.333
	c0.151-0.161,0.271-0.346,0.362-0.557c0.09-0.211,0.159-0.434,0.2-0.669c0.042-0.235,0.076-0.458,0.099-0.668
	c0.021-0.222,0.016-0.445-0.014-0.668c-0.025-0.222-0.078-0.439-0.157-0.65c-0.024-0.118-0.075-0.22-0.149-0.306
	c-0.077-0.086-0.166-0.157-0.27-0.209s-0.212-0.081-0.327-0.088c-0.114-0.006-0.223,0.013-0.326,0.056
	c-0.086,0.038-0.161,0.079-0.231,0.125C71.872,4.452,71.8,4.5,71.729,4.55c-0.054-0.056-0.095-0.108-0.118-0.158
	c0.157-0.099,0.313-0.201,0.468-0.306c0.154-0.106,0.315-0.202,0.485-0.288h-0.009c0.168-0.081,0.354-0.109,0.555-0.084
	c0.198,0.025,0.358,0.115,0.481,0.27C73.783,4.224,73.909,4.488,73.966,4.772z"/>
<path fill="#005826" stroke="#005826" stroke-width="0.1927" d="M77.419,4.433c-0.076,0.01-0.148,0.033-0.215,0.07
	c-0.067,0.038-0.129,0.084-0.187,0.14c-0.057,0.056-0.105,0.114-0.15,0.177c-0.133,0.185-0.247,0.384-0.345,0.594
	c-0.095,0.21-0.187,0.423-0.272,0.641c-0.301,0.754-0.517,1.522-0.644,2.302c-0.066,0.006-0.13,0.003-0.189-0.009
	c-0.062-0.012-0.126-0.021-0.192-0.027c-0.013-0.707,0-1.407,0.037-2.104c0.036-0.696,0.087-1.394,0.155-2.093
	c-0.165,0.056-0.33,0.105-0.497,0.148c-0.165,0.043-0.332,0.092-0.494,0.148c0-0.05,0.006-0.096,0.018-0.14
	c0.013-0.043,0.02-0.09,0.02-0.139c0.271-0.068,0.538-0.149,0.803-0.242c0.263-0.093,0.523-0.194,0.775-0.306
	c-0.011,0.446-0.037,0.892-0.08,1.337c-0.043,0.446-0.048,0.891-0.018,1.337c0.113-0.254,0.22-0.51,0.316-0.766
	c0.097-0.257,0.203-0.513,0.318-0.766h-0.01c0.061-0.086,0.112-0.19,0.154-0.311c0.043-0.122,0.093-0.234,0.145-0.339
	c0.057-0.106,0.124-0.194,0.205-0.265c0.083-0.071,0.193-0.104,0.333-0.097c0.017,0,0.035,0.004,0.053,0.014
	c0.02,0.009,0.038,0.017,0.056,0.023c0.03,0.118,0.053,0.235,0.067,0.353c0.015,0.118,0.035,0.235,0.059,0.353
	C77.567,4.436,77.494,4.425,77.419,4.433z"/>
<path fill="#005826" stroke="#005826" stroke-width="0.1927" d="M80.974,7.312c-0.098,0.208-0.221,0.393-0.368,0.557
	c-0.148,0.164-0.317,0.295-0.508,0.394s-0.398,0.146-0.622,0.14c-0.236-0.006-0.447-0.073-0.632-0.199
	c-0.185-0.127-0.341-0.287-0.467-0.479c-0.128-0.192-0.224-0.404-0.288-0.636c-0.062-0.232-0.091-0.456-0.085-0.673
	c0.006-0.285,0.038-0.588,0.1-0.91c0.06-0.322,0.16-0.623,0.296-0.901s0.312-0.519,0.531-0.724c0.218-0.205,0.489-0.335,0.818-0.391
	c0.246,0,0.451,0.07,0.616,0.21c0.164,0.139,0.287,0.312,0.372,0.52s0.13,0.431,0.136,0.669c0.007,0.238-0.021,0.456-0.082,0.654
	c-0.35,0.105-0.705,0.195-1.062,0.269c-0.357,0.074-0.718,0.13-1.082,0.167C78.618,6.116,78.6,6.243,78.594,6.36
	c-0.007,0.174,0.011,0.356,0.053,0.548c0.044,0.193,0.111,0.369,0.205,0.53c0.095,0.16,0.213,0.297,0.355,0.409
	c0.142,0.111,0.312,0.173,0.513,0.186c0.17-0.006,0.327-0.052,0.471-0.135c0.146-0.083,0.273-0.188,0.382-0.315
	c0.109-0.126,0.197-0.27,0.264-0.431c0.067-0.162,0.11-0.322,0.129-0.483c0.034,0,0.07,0.001,0.104,0.004s0.067,0.008,0.103,0.014
	C81.137,6.896,81.07,7.105,80.974,7.312z M80.048,3.751c-0.091-0.062-0.188-0.092-0.291-0.092c-0.104,0-0.195,0.022-0.278,0.069
	c-0.081,0.047-0.155,0.106-0.221,0.176c-0.067,0.071-0.126,0.152-0.174,0.242c-0.048,0.088-0.09,0.178-0.128,0.264
	c-0.084,0.198-0.151,0.401-0.198,0.609c-0.049,0.208-0.082,0.419-0.1,0.636l0.018,0.092c0.165-0.024,0.326-0.046,0.491-0.064
	c0.162-0.02,0.325-0.041,0.489-0.065c0.182-0.025,0.327-0.096,0.436-0.214c0.108-0.117,0.186-0.256,0.231-0.417
	c0.047-0.161,0.061-0.329,0.042-0.506c-0.018-0.177-0.065-0.335-0.137-0.479C80.198,3.896,80.139,3.813,80.048,3.751z"/>
<path fill="#005826" stroke="#005826" stroke-width="0.1927" d="M84.198,7.177c-0.044,0.105-0.092,0.208-0.146,0.307
	c-0.103,0.241-0.256,0.438-0.459,0.588c-0.201,0.153-0.424,0.251-0.662,0.298c-0.24,0.046-0.48,0.035-0.723-0.033
	s-0.451-0.201-0.626-0.399c-0.013-0.223-0.015-0.444-0.01-0.664c0.007-0.22,0.015-0.441,0.028-0.664
	c0.03,0.013,0.061,0.022,0.096,0.028c0.033,0.007,0.065,0.01,0.094,0.01v0.009l-0.008,0.055l0.008,0.093
	c-0.011,0.056-0.018,0.113-0.014,0.172s-0.001,0.116-0.012,0.172c0.011,0.179,0.066,0.353,0.163,0.52
	c0.096,0.167,0.221,0.304,0.372,0.409l-0.009-0.01c0.077,0.068,0.166,0.116,0.267,0.145c0.101,0.028,0.199,0.038,0.3,0.028
	c0.1-0.009,0.197-0.036,0.291-0.079s0.178-0.102,0.249-0.176c0.08-0.076,0.146-0.163,0.199-0.266
	c0.056-0.102,0.094-0.208,0.116-0.315c0.02-0.108,0.021-0.217,0.004-0.325c-0.02-0.108-0.064-0.209-0.137-0.302
	c-0.128-0.167-0.282-0.313-0.469-0.437c-0.184-0.124-0.36-0.253-0.526-0.39c-0.167-0.136-0.311-0.288-0.431-0.455
	c-0.121-0.167-0.182-0.375-0.182-0.623c0-0.172,0.032-0.34,0.099-0.501c0.068-0.161,0.151-0.307,0.255-0.436
	c0.146-0.18,0.335-0.303,0.567-0.367c0.233-0.065,0.456-0.055,0.668,0.032c0.035-0.019,0.076-0.024,0.118-0.019
	c0.042,0.006,0.082,0.016,0.117,0.028L83.76,3.647c0.019,0.167,0.031,0.334,0.04,0.502c0.01,0.167,0.021,0.334,0.032,0.501
	c-0.029-0.006-0.062-0.013-0.096-0.018c-0.034-0.006-0.068-0.01-0.104-0.01c0-0.192-0.042-0.38-0.122-0.566
	c-0.083-0.186-0.218-0.312-0.404-0.381c-0.177,0.031-0.324,0.124-0.446,0.279c-0.121,0.155-0.181,0.319-0.181,0.492
	c0,0.198,0.04,0.368,0.126,0.51c0.085,0.143,0.192,0.27,0.323,0.381c0.13,0.111,0.27,0.217,0.421,0.316
	c0.151,0.098,0.296,0.204,0.429,0.315c0.134,0.111,0.243,0.236,0.331,0.375c0.089,0.14,0.135,0.308,0.14,0.506
	C84.257,6.964,84.24,7.072,84.198,7.177z"/>
<path fill="#005826" stroke="#005826" stroke-width="0.1927" d="M89.355,7.613c-0.163,0.255-0.36,0.471-0.589,0.65
	c-0.104,0.056-0.218,0.099-0.348,0.13c-0.126,0.031-0.252,0.042-0.375,0.032c-0.125-0.009-0.236-0.044-0.336-0.102
	c-0.101-0.059-0.174-0.147-0.223-0.264c-0.035-0.086-0.052-0.169-0.047-0.247c0.006-0.078,0.006-0.156,0-0.237
	c-0.011-0.081-0.02-0.159-0.027-0.237c-0.006-0.077-0.009-0.156-0.009-0.237c-0.012-0.538,0-1.071,0.036-1.597
	c0.038-0.526,0.089-1.056,0.155-1.588c-0.108,0.013-0.218,0.026-0.327,0.042c-0.109,0.015-0.217,0.035-0.326,0.061
	c0-0.05,0.004-0.103,0.013-0.158c0.008-0.056,0.013-0.109,0.004-0.158c0.115-0.013,0.228-0.03,0.337-0.051
	c0.108-0.022,0.221-0.027,0.337-0.014c0.011-0.168,0.027-0.335,0.045-0.502c0.019-0.167,0.036-0.331,0.055-0.492
	c0.104-0.037,0.204-0.071,0.304-0.103c0.101-0.031,0.201-0.059,0.305-0.083c-0.012,0.192-0.028,0.382-0.05,0.571
	c-0.021,0.188-0.042,0.379-0.06,0.571c0.229,0,0.458,0.003,0.686,0.009c0.227,0.006,0.453,0.034,0.676,0.083
	c0,0.05,0.003,0.1,0.007,0.149c0.003,0.049-0.004,0.098-0.015,0.147c-0.231-0.031-0.463-0.058-0.699-0.083
	c-0.236-0.024-0.473-0.03-0.708-0.018C88.12,4.369,88.089,4.854,88.08,5.34c-0.011,0.485-0.02,0.973-0.033,1.462
	c0,0.111,0,0.236,0,0.372c0,0.137,0.018,0.267,0.046,0.39c0.03,0.125,0.083,0.231,0.154,0.32c0.072,0.089,0.18,0.147,0.319,0.172
	l0.036-0.019c0.132-0.024,0.25-0.079,0.353-0.163c0.104-0.083,0.189-0.184,0.261-0.302c0.068-0.117,0.123-0.243,0.162-0.376
	c0.039-0.132,0.068-0.261,0.087-0.385l0.09-0.018l0.092-0.009C89.616,7.085,89.52,7.36,89.355,7.613z"/>
<path fill="#005826" stroke="#005826" stroke-width="0.1927" d="M93.283,6.504c-0.081,0.344-0.21,0.658-0.385,0.943
	C92.723,7.731,92.5,7.966,92.23,8.152c-0.27,0.186-0.582,0.281-0.94,0.288c-0.14,0-0.27-0.024-0.39-0.074
	c-0.122-0.049-0.243-0.105-0.364-0.167h0.01c-0.093-0.062-0.161-0.139-0.213-0.232c-0.051-0.093-0.103-0.186-0.151-0.279
	c-0.066-0.142-0.113-0.288-0.141-0.44c-0.026-0.152-0.046-0.305-0.058-0.459c-0.031-0.353-0.008-0.723,0.071-1.109
	c0.079-0.387,0.214-0.742,0.404-1.063c0.19-0.323,0.437-0.587,0.736-0.794c0.299-0.208,0.651-0.305,1.058-0.292
	c0.115,0.007,0.22,0.042,0.316,0.106c0.098,0.065,0.183,0.139,0.256,0.219c0.17,0.241,0.299,0.504,0.386,0.789
	s0.141,0.576,0.158,0.873C93.394,5.831,93.365,6.161,93.283,6.504z M92.734,5.265c-0.024-0.235-0.079-0.458-0.159-0.669
	c-0.082-0.21-0.196-0.393-0.345-0.548c-0.148-0.154-0.345-0.25-0.585-0.287c-0.135,0.031-0.247,0.09-0.338,0.177
	c-0.089,0.086-0.166,0.187-0.227,0.301c-0.061,0.115-0.111,0.237-0.149,0.367c-0.04,0.13-0.077,0.254-0.114,0.372
	c-0.065,0.229-0.112,0.461-0.135,0.697c-0.025,0.234-0.04,0.471-0.046,0.705c0,0.174,0.01,0.362,0.032,0.567
	c0.02,0.205,0.065,0.396,0.131,0.576c0.066,0.179,0.164,0.335,0.289,0.469c0.13,0.133,0.298,0.212,0.51,0.237
	c0.254-0.043,0.46-0.149,0.613-0.317c0.156-0.167,0.273-0.361,0.354-0.584c0.082-0.223,0.136-0.458,0.163-0.706
	c0.025-0.247,0.04-0.48,0.04-0.696C92.77,5.72,92.758,5.5,92.734,5.265z"/>
<path fill="#005826" stroke="#005826" stroke-width="0.1927" d="M98.088,7.674c-0.004,0.046-0.008,0.095-0.015,0.145
	c-0.267,0.05-0.526,0.118-0.779,0.204c-0.256,0.087-0.498,0.208-0.728,0.362c0.146-0.588,0.254-1.18,0.327-1.779
	c0.072-0.597,0.103-1.196,0.092-1.796c-0.135,0.328-0.292,0.641-0.474,0.938c-0.181,0.297-0.376,0.589-0.581,0.873
	c-0.207,0.285-0.413,0.566-0.623,0.845C95.1,7.744,94.902,8.029,94.713,8.32c-0.072,0.006-0.144,0-0.218-0.019
	c-0.072-0.018-0.146-0.032-0.219-0.038c-0.083-0.711-0.103-1.42-0.057-2.126c0.045-0.706,0.117-1.408,0.221-2.107
	c-0.12,0.037-0.241,0.076-0.364,0.117c-0.12,0.04-0.24,0.085-0.361,0.134c0.012-0.043,0.019-0.083,0.019-0.12
	s0.002-0.078,0.008-0.121c0.255-0.05,0.501-0.123,0.74-0.223c0.239-0.099,0.466-0.22,0.678-0.362
	c0.011,0.019,0.026,0.036,0.04,0.052c0.015,0.015,0.029,0.032,0.04,0.051c-0.2,0.655-0.335,1.323-0.403,2s-0.081,1.358-0.031,2.038
	c0.363-0.396,0.698-0.81,1.008-1.244c0.309-0.434,0.577-0.895,0.808-1.384h-0.008c0.104-0.21,0.189-0.426,0.258-0.649
	c0.069-0.224,0.115-0.452,0.133-0.688c0.084,0.007,0.171,0.014,0.264,0.019c0.089,0.006,0.178,0.015,0.263,0.028
	c0.066,0.693,0.074,1.383,0.026,2.07c-0.047,0.688-0.127,1.372-0.236,2.053c0.128-0.05,0.26-0.095,0.396-0.135
	c0.137-0.04,0.268-0.085,0.395-0.135C98.1,7.58,98.089,7.628,98.088,7.674z"/>
<path fill="#005826" stroke="#005826" stroke-width="0.1927" d="M100.871,7.613c-0.164,0.255-0.361,0.471-0.59,0.65
	c-0.104,0.056-0.219,0.099-0.345,0.13c-0.129,0.031-0.254,0.042-0.378,0.032s-0.236-0.044-0.336-0.102
	C99.122,8.265,99.049,8.177,99,8.06c-0.035-0.086-0.052-0.169-0.045-0.247c0.005-0.078,0.005-0.156,0-0.237
	c-0.013-0.081-0.022-0.159-0.028-0.237c-0.006-0.077-0.009-0.156-0.009-0.237c-0.013-0.538,0-1.071,0.037-1.597
	c0.035-0.526,0.087-1.056,0.153-1.588C99,3.931,98.892,3.944,98.782,3.96c-0.109,0.015-0.218,0.035-0.327,0.061
	c0-0.05,0.004-0.103,0.014-0.158c0.009-0.056,0.012-0.109,0.006-0.158c0.114-0.013,0.226-0.03,0.335-0.051
	c0.108-0.022,0.22-0.027,0.334-0.014c0.014-0.168,0.029-0.335,0.047-0.502c0.019-0.167,0.036-0.331,0.054-0.492
	c0.104-0.037,0.206-0.071,0.306-0.103c0.1-0.031,0.202-0.059,0.305-0.083c-0.013,0.192-0.029,0.382-0.051,0.571
	c-0.021,0.188-0.041,0.379-0.06,0.571c0.23,0,0.46,0.003,0.687,0.009c0.226,0.006,0.452,0.034,0.675,0.083
	c0,0.05,0.003,0.1,0.007,0.149c0.003,0.049-0.001,0.098-0.013,0.147c-0.23-0.031-0.466-0.058-0.701-0.083
	c-0.236-0.024-0.473-0.03-0.708-0.018c-0.055,0.482-0.086,0.967-0.097,1.453c-0.009,0.485-0.019,0.973-0.03,1.462
	c0,0.111,0,0.236,0,0.372c0,0.137,0.015,0.267,0.044,0.39c0.031,0.125,0.083,0.231,0.155,0.32c0.074,0.089,0.177,0.147,0.318,0.172
	l0.036-0.019c0.132-0.024,0.251-0.079,0.353-0.163c0.104-0.083,0.189-0.184,0.261-0.302c0.069-0.117,0.124-0.243,0.163-0.376
	c0.038-0.132,0.067-0.261,0.087-0.385l0.09-0.018l0.091-0.009C101.131,7.085,101.035,7.36,100.871,7.613z"/>
<path fill="#005826" stroke="#005826" stroke-width="0.1927" d="M104.458,7.312c-0.097,0.208-0.221,0.393-0.369,0.557
	c-0.148,0.164-0.317,0.295-0.507,0.394c-0.192,0.099-0.398,0.146-0.622,0.14c-0.237-0.006-0.447-0.073-0.631-0.199
	c-0.186-0.127-0.341-0.287-0.469-0.479c-0.126-0.192-0.222-0.404-0.285-0.636c-0.064-0.232-0.094-0.456-0.088-0.673
	c0.006-0.285,0.04-0.588,0.1-0.91c0.062-0.322,0.161-0.623,0.297-0.901c0.137-0.279,0.313-0.519,0.531-0.724
	c0.219-0.205,0.49-0.335,0.817-0.391c0.247,0,0.454,0.07,0.616,0.21c0.164,0.139,0.289,0.312,0.373,0.52
	c0.085,0.208,0.131,0.431,0.136,0.669c0.007,0.238-0.021,0.456-0.081,0.654c-0.351,0.105-0.705,0.195-1.063,0.269
	c-0.356,0.074-0.717,0.13-1.08,0.167c-0.029,0.137-0.047,0.264-0.055,0.381c-0.007,0.174,0.013,0.356,0.055,0.548
	c0.042,0.193,0.11,0.369,0.204,0.53c0.094,0.16,0.213,0.297,0.354,0.409c0.143,0.111,0.313,0.173,0.513,0.186
	c0.17-0.006,0.329-0.052,0.472-0.135c0.146-0.083,0.273-0.188,0.382-0.315c0.11-0.126,0.197-0.27,0.264-0.431
	c0.066-0.162,0.109-0.322,0.128-0.483c0.036,0,0.071,0.001,0.104,0.004s0.068,0.008,0.104,0.014
	C104.622,6.896,104.554,7.105,104.458,7.312z M103.533,3.751c-0.092-0.062-0.189-0.092-0.292-0.092
	c-0.104,0-0.195,0.022-0.277,0.069c-0.081,0.047-0.155,0.106-0.222,0.176c-0.068,0.071-0.125,0.152-0.172,0.242
	c-0.05,0.088-0.092,0.178-0.129,0.264c-0.084,0.198-0.152,0.401-0.2,0.609c-0.047,0.208-0.081,0.419-0.1,0.636l0.019,0.092
	c0.164-0.024,0.327-0.046,0.491-0.064c0.163-0.02,0.326-0.041,0.489-0.065c0.183-0.025,0.327-0.096,0.436-0.214
	c0.11-0.117,0.187-0.256,0.231-0.417c0.047-0.161,0.061-0.329,0.041-0.506c-0.018-0.177-0.063-0.335-0.135-0.479
	C103.684,3.896,103.622,3.813,103.533,3.751z"/>
<path fill="#005826" stroke="#005826" stroke-width="0.1927" d="M107.683,7.177c-0.043,0.105-0.091,0.208-0.146,0.307
	c-0.104,0.241-0.255,0.438-0.459,0.588c-0.203,0.153-0.424,0.251-0.662,0.298c-0.24,0.046-0.48,0.035-0.723-0.033
	s-0.451-0.201-0.626-0.399c-0.014-0.223-0.015-0.444-0.011-0.664c0.008-0.22,0.016-0.441,0.027-0.664
	c0.031,0.013,0.062,0.022,0.097,0.028c0.032,0.007,0.064,0.01,0.095,0.01v0.009l-0.008,0.055l0.008,0.093
	c-0.011,0.056-0.018,0.113-0.014,0.172c0.003,0.059,0,0.116-0.014,0.172c0.014,0.179,0.067,0.353,0.163,0.52
	c0.097,0.167,0.224,0.304,0.374,0.409l-0.011-0.01c0.078,0.068,0.169,0.116,0.269,0.145c0.101,0.028,0.2,0.038,0.301,0.028
	c0.098-0.009,0.195-0.036,0.29-0.079c0.093-0.043,0.176-0.102,0.249-0.176c0.079-0.076,0.145-0.163,0.2-0.266
	c0.055-0.102,0.091-0.208,0.113-0.315c0.022-0.108,0.023-0.217,0.005-0.325c-0.018-0.108-0.063-0.209-0.135-0.302
	c-0.128-0.167-0.283-0.313-0.47-0.437c-0.184-0.124-0.359-0.253-0.526-0.39c-0.166-0.136-0.311-0.288-0.432-0.455
	s-0.183-0.375-0.183-0.623c0-0.172,0.034-0.34,0.101-0.501c0.066-0.161,0.151-0.307,0.255-0.436c0.146-0.18,0.335-0.303,0.566-0.367
	c0.235-0.065,0.455-0.055,0.669,0.032c0.036-0.019,0.076-0.024,0.117-0.019c0.042,0.006,0.083,0.016,0.119,0.028l-0.036,0.037
	c0.018,0.167,0.031,0.334,0.041,0.502c0.008,0.167,0.019,0.334,0.031,0.501c-0.031-0.006-0.063-0.013-0.096-0.018
	c-0.034-0.006-0.068-0.01-0.104-0.01c0-0.192-0.041-0.38-0.121-0.566c-0.083-0.186-0.218-0.312-0.406-0.381
	c-0.175,0.031-0.322,0.124-0.444,0.279c-0.122,0.155-0.181,0.319-0.181,0.492c0,0.198,0.042,0.368,0.125,0.51
	c0.086,0.143,0.193,0.27,0.324,0.381c0.129,0.111,0.271,0.217,0.422,0.316c0.151,0.098,0.295,0.204,0.427,0.315
	c0.133,0.111,0.243,0.236,0.332,0.375c0.088,0.14,0.135,0.308,0.141,0.506C107.743,6.964,107.724,7.072,107.683,7.177z"/>
<path fill="#005826" stroke="#005826" stroke-width="0.1927" d="M113.903,6.463c-0.176,0.445-0.401,0.87-0.678,1.271
	c-0.274,0.402-0.582,0.785-0.922,1.147c-0.338,0.362-0.675,0.707-1.007,1.036c-0.031-0.057-0.063-0.106-0.1-0.149
	c-0.038-0.042-0.075-0.089-0.119-0.139c0.284-0.168,0.543-0.37,0.771-0.608c0.23-0.239,0.434-0.498,0.608-0.78
	c0.177-0.282,0.329-0.578,0.459-0.887c0.131-0.309,0.238-0.622,0.322-0.938c0.061-0.198,0.101-0.397,0.123-0.599
	c0.021-0.201,0.041-0.403,0.06-0.608c-0.006-0.081-0.006-0.167,0-0.26c0.005-0.093,0.003-0.185-0.008-0.274
	c-0.014-0.09-0.037-0.172-0.075-0.246c-0.034-0.074-0.096-0.136-0.182-0.185c-0.169,0.049-0.315,0.136-0.44,0.259
	c-0.124,0.125-0.237,0.254-0.341,0.391c-0.168,0.216-0.332,0.439-0.489,0.668s-0.301,0.468-0.431,0.715
	c-0.131,0.247-0.245,0.501-0.342,0.761c-0.096,0.26-0.17,0.529-0.218,0.808c0,0.067-0.009,0.132-0.026,0.195
	c-0.018,0.062-0.025,0.127-0.018,0.195c-0.08,0.006-0.155,0.012-0.229,0.018c-0.072,0.006-0.147,0.006-0.228,0
	c0.019-0.377,0.029-0.755,0.032-1.132s0.006-0.755,0.006-1.133c0.005-0.446,0.022-0.892,0.054-1.337
	c0.03-0.446,0.081-0.891,0.155-1.337c0.06-0.359,0.111-0.659,0.153-0.9c0.042-0.242,0.087-0.469,0.133-0.684
	c0.044-0.213,0.093-0.439,0.141-0.677c0.047-0.238,0.108-0.537,0.181-0.895c0.395-0.038,0.788-0.038,1.181,0
	c0,0.037,0.003,0.075,0.008,0.115c0.008,0.041,0.008,0.079,0,0.117L112.429,0.4c-0.061,0.006-0.121,0.009-0.181,0.009
	c-0.057,0-0.111,0.003-0.174,0.009V0.409c-0.188,0.272-0.335,0.624-0.44,1.054s-0.216,0.967-0.331,1.61
	c-0.098,0.571-0.161,1.142-0.191,1.714c-0.029,0.572-0.061,1.146-0.09,1.722c0.14-0.13,0.252-0.277,0.341-0.441
	c0.087-0.164,0.184-0.322,0.286-0.478c0.066-0.1,0.136-0.196,0.203-0.292c0.069-0.097,0.138-0.197,0.204-0.302
	c0.163-0.242,0.345-0.463,0.536-0.664c0.195-0.202,0.394-0.401,0.6-0.6c0.163,0.007,0.324,0.003,0.485-0.009
	c0.159-0.013,0.323-0.016,0.486-0.01v1.328C114.166,5.543,114.077,6.017,113.903,6.463z"/>
<path fill="#005826" stroke="#005826" stroke-width="0.1927" d="M117.718,8.064c-0.224,0.121-0.443,0.249-0.654,0.385
	c-0.006,0-0.009-0.003-0.009-0.009h-0.009c0.048-0.21,0.091-0.461,0.127-0.752c0.035-0.29,0.065-0.569,0.087-0.835
	c0.021-0.267,0.044-0.585,0.067-0.957C117.2,6.125,117.091,6.321,117,6.481s-0.188,0.331-0.29,0.51
	c-0.104,0.181-0.194,0.335-0.272,0.465c-0.073,0.111-0.159,0.221-0.256,0.33c-0.096,0.108-0.205,0.205-0.322,0.287
	c-0.117,0.084-0.243,0.149-0.376,0.196c-0.132,0.046-0.273,0.063-0.418,0.051c-0.109-0.032-0.201-0.085-0.277-0.163
	c-0.075-0.077-0.136-0.165-0.182-0.265c-0.045-0.099-0.078-0.205-0.1-0.315c-0.022-0.111-0.037-0.22-0.05-0.325
	c0.006-0.34,0.065-0.666,0.178-0.975c0.111-0.31,0.255-0.604,0.426-0.887c0.174-0.281,0.369-0.549,0.59-0.803
	c0.224-0.253,0.444-0.495,0.668-0.724c0.104-0.074,0.204-0.152,0.305-0.233c0.1-0.079,0.218-0.12,0.35-0.12
	c0.067,0.012,0.127,0.027,0.183,0.047c0.053,0.018,0.114,0.034,0.181,0.046c0.104-0.006,0.2-0.012,0.295-0.019
	c0.094-0.006,0.192-0.003,0.295,0.009c0.05,0.514,0.058,1.025,0.023,1.532c-0.034,0.508-0.077,1.019-0.132,1.532
	c-0.011,0.124-0.029,0.246-0.055,0.366c-0.023,0.121-0.033,0.243-0.026,0.367c0,0.074,0,0.158,0.003,0.25s0.051,0.155,0.141,0.186
	c0.086-0.031,0.169-0.061,0.251-0.088c0.081-0.028,0.161-0.06,0.241-0.098c0.006,0.038,0.02,0.078,0.044,0.121
	C118.174,7.843,117.94,7.943,117.718,8.064z M117.295,5.293c0.052-0.174,0.084-0.347,0.101-0.521
	c0.015-0.172,0.003-0.342-0.037-0.506c-0.04-0.164-0.126-0.311-0.259-0.441l0.009,0.02c-0.128-0.068-0.245-0.064-0.354,0.013
	c-0.109,0.079-0.21,0.156-0.3,0.237c-0.123,0.105-0.234,0.224-0.335,0.353c-0.105,0.13-0.203,0.262-0.301,0.399
	c-0.114,0.154-0.222,0.317-0.321,0.486c-0.101,0.171-0.186,0.347-0.25,0.525c-0.134,0.353-0.217,0.721-0.246,1.105
	c-0.007,0.087,0.003,0.174,0.022,0.26c0.021,0.087,0.055,0.167,0.101,0.241c0.045,0.075,0.104,0.134,0.177,0.181
	c0.072,0.047,0.155,0.07,0.245,0.07c0.219-0.062,0.404-0.164,0.559-0.307c0.154-0.142,0.293-0.303,0.413-0.482
	c0.121-0.179,0.229-0.371,0.322-0.572c0.094-0.202,0.191-0.392,0.296-0.571C117.19,5.63,117.243,5.466,117.295,5.293z"/>
<path fill="#005826" stroke="#005826" stroke-width="0.1927" d="M123.098,7.674c-0.003,0.046-0.007,0.095-0.013,0.145
	c-0.267,0.05-0.526,0.118-0.781,0.204c-0.254,0.087-0.496,0.208-0.728,0.362c0.146-0.588,0.255-1.18,0.328-1.779
	c0.072-0.597,0.103-1.196,0.09-1.796c-0.134,0.328-0.289,0.641-0.472,0.938c-0.182,0.297-0.375,0.589-0.582,0.873
	c-0.204,0.285-0.414,0.566-0.621,0.845c-0.21,0.278-0.408,0.563-0.596,0.854c-0.072,0.006-0.146,0-0.217-0.019
	c-0.073-0.018-0.146-0.032-0.219-0.038c-0.085-0.711-0.104-1.42-0.06-2.126c0.046-0.706,0.121-1.408,0.224-2.107
	c-0.122,0.037-0.244,0.076-0.363,0.117c-0.121,0.04-0.243,0.085-0.364,0.134c0.013-0.043,0.018-0.083,0.018-0.12
	s0.003-0.078,0.012-0.121c0.253-0.05,0.499-0.123,0.738-0.223c0.239-0.099,0.466-0.22,0.677-0.362
	c0.013,0.019,0.025,0.036,0.041,0.052c0.015,0.015,0.029,0.032,0.041,0.051c-0.199,0.655-0.334,1.323-0.405,2
	c-0.069,0.677-0.078,1.358-0.031,2.038c0.362-0.396,0.701-0.81,1.009-1.244c0.309-0.434,0.576-0.895,0.809-1.384h-0.01
	c0.103-0.21,0.189-0.426,0.259-0.649c0.07-0.224,0.113-0.452,0.132-0.688c0.085,0.007,0.174,0.014,0.263,0.019
	c0.09,0.006,0.179,0.015,0.265,0.028c0.066,0.693,0.074,1.383,0.025,2.07c-0.048,0.688-0.126,1.372-0.234,2.053
	c0.126-0.05,0.258-0.095,0.394-0.135c0.137-0.04,0.269-0.085,0.396-0.135C123.108,7.58,123.102,7.628,123.098,7.674z"/>
<path fill="#005826" stroke="#005826" stroke-width="0.1927" d="M125.881,7.613c-0.163,0.255-0.358,0.471-0.59,0.65
	c-0.103,0.056-0.218,0.099-0.345,0.13c-0.128,0.031-0.253,0.042-0.378,0.032c-0.123-0.009-0.234-0.044-0.335-0.102
	c-0.1-0.059-0.176-0.147-0.224-0.264c-0.036-0.086-0.052-0.169-0.046-0.247c0.008-0.078,0.008-0.156,0-0.237
	c-0.012-0.081-0.021-0.159-0.025-0.237c-0.007-0.077-0.01-0.156-0.01-0.237c-0.013-0.538,0-1.071,0.035-1.597
	c0.038-0.526,0.089-1.056,0.155-1.588c-0.109,0.013-0.218,0.026-0.327,0.042c-0.109,0.015-0.217,0.035-0.326,0.061
	c0-0.05,0.005-0.103,0.014-0.158c0.009-0.056,0.011-0.109,0.003-0.158c0.115-0.013,0.229-0.03,0.338-0.051
	c0.108-0.022,0.221-0.027,0.336-0.014c0.011-0.168,0.026-0.335,0.046-0.502c0.018-0.167,0.036-0.331,0.054-0.492
	c0.104-0.037,0.203-0.071,0.304-0.103c0.101-0.031,0.201-0.059,0.305-0.083c-0.013,0.192-0.028,0.382-0.049,0.571
	c-0.021,0.188-0.042,0.379-0.06,0.571c0.229,0,0.457,0.003,0.685,0.009s0.452,0.034,0.677,0.083c0,0.05,0.002,0.1,0.005,0.149
	s-0.001,0.098-0.014,0.147c-0.23-0.031-0.464-0.058-0.699-0.083c-0.235-0.024-0.473-0.03-0.709-0.018
	c-0.055,0.482-0.086,0.967-0.095,1.453c-0.009,0.485-0.02,0.973-0.03,1.462c0,0.111,0,0.236,0,0.372c0,0.137,0.014,0.267,0.045,0.39
	c0.028,0.125,0.08,0.231,0.153,0.32c0.072,0.089,0.179,0.147,0.317,0.172l0.036-0.019c0.133-0.024,0.252-0.079,0.355-0.163
	c0.103-0.084,0.189-0.184,0.259-0.302c0.068-0.117,0.122-0.243,0.163-0.376c0.039-0.132,0.068-0.261,0.086-0.385l0.091-0.018
	l0.092-0.009C126.142,7.085,126.045,7.36,125.881,7.613z"/>
<path fill="#005826" stroke="#005826" stroke-width="0.1927" d="M129.469,7.312c-0.097,0.208-0.221,0.393-0.368,0.557
	c-0.149,0.164-0.317,0.295-0.508,0.394s-0.399,0.146-0.623,0.14c-0.234-0.006-0.446-0.073-0.63-0.199
	c-0.186-0.127-0.342-0.287-0.468-0.479c-0.129-0.192-0.224-0.404-0.286-0.636c-0.063-0.232-0.094-0.456-0.087-0.673
	c0.007-0.285,0.039-0.588,0.1-0.91c0.062-0.322,0.159-0.623,0.296-0.901c0.135-0.279,0.312-0.519,0.529-0.724
	c0.219-0.205,0.49-0.335,0.818-0.391c0.248,0,0.453,0.07,0.617,0.21c0.165,0.139,0.288,0.312,0.374,0.52
	c0.085,0.208,0.129,0.431,0.136,0.669c0.006,0.238-0.022,0.456-0.083,0.654c-0.351,0.105-0.705,0.195-1.062,0.269
	c-0.356,0.074-0.717,0.13-1.081,0.167c-0.03,0.137-0.048,0.264-0.053,0.381c-0.006,0.174,0.012,0.356,0.053,0.548
	c0.044,0.193,0.112,0.369,0.205,0.53c0.095,0.16,0.212,0.297,0.355,0.409c0.142,0.111,0.311,0.173,0.513,0.186
	c0.168-0.006,0.326-0.052,0.472-0.135c0.145-0.083,0.271-0.188,0.381-0.315c0.108-0.126,0.197-0.27,0.264-0.431
	c0.065-0.162,0.109-0.322,0.126-0.483c0.039,0,0.071,0.001,0.106,0.004c0.032,0.003,0.067,0.008,0.104,0.014
	C129.632,6.896,129.564,7.105,129.469,7.312z M128.542,3.751c-0.091-0.062-0.187-0.092-0.29-0.092s-0.195,0.022-0.276,0.069
	c-0.083,0.047-0.157,0.106-0.224,0.176c-0.067,0.071-0.125,0.152-0.173,0.242c-0.05,0.088-0.091,0.178-0.125,0.264
	c-0.086,0.198-0.153,0.401-0.2,0.609c-0.051,0.208-0.083,0.419-0.101,0.636l0.018,0.092c0.163-0.024,0.327-0.046,0.49-0.064
	c0.164-0.02,0.327-0.041,0.492-0.065c0.181-0.025,0.324-0.096,0.434-0.214c0.108-0.117,0.187-0.256,0.232-0.417
	c0.046-0.161,0.057-0.329,0.04-0.506s-0.063-0.335-0.135-0.479C128.692,3.896,128.635,3.813,128.542,3.751z"/>
<path fill="#005826" stroke="#005826" stroke-width="0.1927" d="M134.377,7.674c-0.003,0.046-0.007,0.095-0.016,0.145
	c-0.265,0.05-0.524,0.118-0.779,0.204c-0.254,0.087-0.496,0.208-0.726,0.362c0.146-0.588,0.254-1.18,0.327-1.779
	c0.072-0.597,0.103-1.196,0.092-1.796c-0.135,0.328-0.293,0.641-0.474,0.938c-0.183,0.297-0.375,0.589-0.581,0.873
	c-0.207,0.285-0.413,0.566-0.623,0.845c-0.208,0.278-0.406,0.563-0.596,0.854c-0.071,0.006-0.144,0-0.217-0.019
	c-0.072-0.018-0.146-0.032-0.219-0.038c-0.083-0.711-0.103-1.42-0.059-2.126c0.047-0.706,0.119-1.408,0.223-2.107
	c-0.122,0.037-0.241,0.076-0.364,0.117c-0.12,0.04-0.24,0.085-0.361,0.134c0.012-0.043,0.019-0.083,0.019-0.12
	s0.003-0.078,0.008-0.121c0.255-0.05,0.501-0.123,0.74-0.223c0.239-0.099,0.466-0.22,0.678-0.362
	c0.011,0.019,0.024,0.036,0.04,0.052c0.015,0.015,0.029,0.032,0.04,0.051c-0.2,0.655-0.335,1.323-0.403,2s-0.081,1.358-0.032,2.038
	c0.364-0.396,0.699-0.81,1.009-1.244c0.309-0.434,0.577-0.895,0.808-1.384h-0.008c0.103-0.21,0.188-0.426,0.258-0.649
	c0.069-0.224,0.115-0.452,0.132-0.688c0.085,0.007,0.172,0.014,0.264,0.019c0.09,0.006,0.178,0.015,0.264,0.028
	c0.066,0.693,0.074,1.383,0.026,2.07c-0.049,0.688-0.127,1.372-0.235,2.053c0.127-0.05,0.258-0.095,0.396-0.135
	c0.137-0.04,0.267-0.085,0.395-0.135C134.389,7.58,134.379,7.628,134.377,7.674z"/>
<path fill="#005826" stroke="#005826" stroke-width="0.1927" d="M137.765,4.433c-0.075,0.01-0.148,0.033-0.214,0.07
	c-0.066,0.038-0.128,0.084-0.187,0.14c-0.057,0.056-0.107,0.114-0.149,0.177c-0.134,0.185-0.248,0.384-0.346,0.594
	c-0.096,0.21-0.187,0.423-0.272,0.641c-0.303,0.754-0.518,1.522-0.644,2.302c-0.066,0.006-0.13,0.003-0.191-0.009
	s-0.125-0.021-0.19-0.027c-0.012-0.707,0-1.407,0.037-2.104c0.034-0.696,0.086-1.394,0.153-2.093
	c-0.164,0.056-0.328,0.105-0.495,0.148c-0.166,0.043-0.332,0.092-0.493,0.148c0-0.05,0.005-0.096,0.018-0.14
	c0.011-0.043,0.019-0.09,0.019-0.139c0.271-0.068,0.538-0.149,0.801-0.242c0.265-0.093,0.524-0.194,0.777-0.306
	c-0.012,0.446-0.038,0.892-0.08,1.337c-0.043,0.446-0.049,0.891-0.02,1.337c0.116-0.254,0.221-0.51,0.317-0.766
	c0.098-0.257,0.204-0.513,0.318-0.766h-0.009c0.061-0.086,0.112-0.19,0.155-0.311c0.041-0.122,0.091-0.234,0.145-0.339
	c0.056-0.106,0.124-0.194,0.204-0.265c0.082-0.071,0.191-0.104,0.332-0.097c0.018,0,0.035,0.004,0.055,0.014
	c0.018,0.009,0.036,0.017,0.055,0.023c0.029,0.118,0.052,0.235,0.066,0.353c0.017,0.118,0.036,0.235,0.06,0.353
	C137.914,4.436,137.84,4.425,137.765,4.433z"/>
<path fill="#005826" stroke="#005826" stroke-width="0.1927" d="M141.048,7.177c-0.041,0.105-0.092,0.208-0.146,0.307
	c-0.102,0.241-0.256,0.438-0.457,0.588c-0.204,0.153-0.424,0.251-0.664,0.298c-0.239,0.046-0.479,0.035-0.722-0.033
	c-0.242-0.068-0.449-0.201-0.627-0.399c-0.012-0.223-0.015-0.444-0.01-0.664c0.006-0.22,0.016-0.441,0.028-0.664
	c0.029,0.013,0.061,0.022,0.096,0.028c0.031,0.007,0.064,0.01,0.095,0.01v0.009l-0.01,0.055l0.01,0.093
	c-0.013,0.056-0.016,0.113-0.013,0.172s-0.002,0.116-0.014,0.172c0.012,0.179,0.065,0.353,0.162,0.52
	c0.099,0.167,0.221,0.304,0.373,0.409l-0.008-0.01c0.077,0.068,0.166,0.116,0.267,0.145c0.1,0.028,0.2,0.038,0.301,0.028
	c0.1-0.009,0.195-0.036,0.289-0.079c0.095-0.043,0.179-0.102,0.249-0.176c0.08-0.076,0.146-0.163,0.2-0.266
	c0.056-0.102,0.094-0.208,0.115-0.315c0.02-0.108,0.022-0.217,0.004-0.325c-0.019-0.108-0.063-0.209-0.137-0.302
	c-0.127-0.167-0.282-0.313-0.467-0.437s-0.36-0.253-0.528-0.39c-0.164-0.136-0.31-0.288-0.431-0.455s-0.181-0.375-0.181-0.623
	c0-0.172,0.032-0.34,0.099-0.501c0.068-0.161,0.151-0.307,0.254-0.436c0.146-0.18,0.335-0.303,0.567-0.367
	c0.234-0.065,0.456-0.055,0.668,0.032c0.036-0.019,0.077-0.024,0.119-0.019c0.042,0.006,0.081,0.016,0.117,0.028l-0.036,0.037
	c0.02,0.167,0.032,0.334,0.04,0.502c0.011,0.167,0.02,0.334,0.032,0.501c-0.029-0.006-0.062-0.013-0.095-0.018
	c-0.032-0.006-0.068-0.01-0.104-0.01c0-0.192-0.041-0.38-0.124-0.566c-0.083-0.186-0.216-0.312-0.403-0.381
	c-0.175,0.031-0.324,0.124-0.444,0.279c-0.122,0.155-0.184,0.319-0.184,0.492c0,0.198,0.043,0.368,0.129,0.51
	c0.084,0.143,0.192,0.27,0.321,0.381c0.131,0.111,0.271,0.217,0.424,0.316c0.15,0.098,0.292,0.204,0.427,0.315
	c0.132,0.111,0.243,0.236,0.331,0.375c0.088,0.14,0.134,0.308,0.14,0.506C141.108,6.964,141.089,7.072,141.048,7.177z"/>
<path fill="#5E3312" d="M16.427,21.279c0,0.034,0.011,0.058,0.031,0.074s0.063,0.025,0.128,0.025v0.119h-1.558v-0.119
	c0.064-0.013,0.112-0.034,0.14-0.064c0.029-0.03,0.059-0.084,0.09-0.163c0.01-0.033,0.04-0.122,0.087-0.267s0.108-0.328,0.186-0.548
	c0.076-0.221,0.16-0.466,0.254-0.736c0.095-0.27,0.187-0.545,0.281-0.825c0.094-0.28,0.187-0.553,0.278-0.82
	s0.172-0.506,0.242-0.717c0.069-0.21,0.128-0.382,0.171-0.514c0.044-0.131,0.067-0.201,0.067-0.208c0-0.033-0.021-0.056-0.059-0.068
	c-0.039-0.013-0.078-0.023-0.118-0.03V16.3h2.296v0.118c-0.047,0.007-0.085,0.017-0.114,0.03c-0.029,0.013-0.044,0.046-0.044,0.099
	c0,0.013,0.027,0.099,0.083,0.257c0.057,0.159,0.128,0.364,0.217,0.618c0.087,0.253,0.188,0.541,0.303,0.859
	c0.114,0.32,0.232,0.646,0.356,0.978c0.123,0.333,0.242,0.658,0.356,0.974c0.113,0.316,0.218,0.6,0.312,0.85
	c0.045,0.119,0.085,0.197,0.117,0.238c0.032,0.039,0.075,0.059,0.128,0.059v0.119h-1.732V21.38c0.11-0.006,0.166-0.046,0.166-0.119
	c0-0.006-0.013-0.05-0.042-0.133c-0.03-0.082-0.062-0.174-0.098-0.277c-0.035-0.102-0.069-0.199-0.102-0.292
	s-0.051-0.155-0.058-0.187h-2.085c-0.059,0.177-0.106,0.322-0.14,0.435c-0.035,0.112-0.063,0.2-0.084,0.267
	c-0.021,0.065-0.035,0.113-0.044,0.143S16.427,21.266,16.427,21.279z M18.564,19.58l-0.852-2.352l-0.784,2.352H18.564z"/>
<path fill="#5E3312" d="M21.867,17.307c-0.049-0.02-0.117-0.032-0.206-0.039v-0.119h2.647c0.265,0,0.491,0.015,0.678,0.045
	c0.188,0.03,0.342,0.084,0.458,0.164c0.117,0.079,0.204,0.189,0.261,0.331c0.056,0.142,0.083,0.322,0.083,0.539
	c0,0.211-0.057,0.401-0.172,0.568c-0.114,0.167-0.25,0.295-0.409,0.38c0.237,0.086,0.417,0.209,0.54,0.371
	c0.121,0.162,0.183,0.39,0.183,0.687c0,0.389-0.124,0.697-0.371,0.924s-0.649,0.341-1.207,0.341h-2.69V21.38
	c0.089-0.006,0.157-0.02,0.206-0.04c0.052-0.019,0.076-0.065,0.076-0.138v-3.756C21.943,17.373,21.919,17.327,21.867,17.307z
	 M24.169,18.928c0.229,0,0.383-0.046,0.462-0.139c0.079-0.092,0.119-0.204,0.119-0.336c0-0.198-0.049-0.326-0.145-0.385
	c-0.098-0.059-0.244-0.089-0.437-0.089h-1.047v0.949C23.121,18.928,24.169,18.928,24.169,18.928z M24.081,20.667
	c0.206,0,0.378-0.039,0.519-0.118c0.142-0.08,0.212-0.217,0.212-0.415c0-0.132-0.021-0.235-0.065-0.307
	c-0.045-0.073-0.102-0.125-0.173-0.158c-0.069-0.033-0.146-0.053-0.232-0.06c-0.085-0.007-0.172-0.01-0.26-0.01h-0.959v1.067h0.958
	V20.667z"/>
<path fill="#5E3312" d="M30.389,21.378c0.02,0,0.041-0.003,0.071-0.01c0.029-0.006,0.044-0.032,0.044-0.079
	c0-0.026-0.011-0.067-0.031-0.124c-0.021-0.056-0.044-0.117-0.07-0.183c-0.026-0.065-0.053-0.132-0.084-0.197
	c-0.029-0.066-0.053-0.122-0.07-0.168h-2.04c-0.014,0.046-0.031,0.102-0.058,0.168c-0.026,0.065-0.055,0.132-0.084,0.197
	c-0.029,0.066-0.056,0.127-0.079,0.183s-0.035,0.097-0.035,0.124c0,0.046,0.015,0.073,0.044,0.079c0.029,0.007,0.053,0.01,0.07,0.01
	v0.119h-1.319v-0.119c0.035,0,0.071-0.009,0.104-0.025c0.035-0.016,0.059-0.041,0.07-0.074c0.177-0.461,0.355-0.917,0.537-1.369
	c0.183-0.451,0.346-0.859,0.488-1.225c0.145-0.365,0.264-0.668,0.357-0.909c0.093-0.241,0.14-0.377,0.14-0.411
	c0-0.06-0.038-0.092-0.113-0.099v-0.119h1.839v0.119c-0.076,0.007-0.115,0.039-0.115,0.099c0,0.02,0.031,0.107,0.093,0.262
	c0.062,0.155,0.142,0.35,0.241,0.583c0.101,0.234,0.211,0.493,0.331,0.776c0.119,0.283,0.24,0.567,0.36,0.85
	c0.121,0.283,0.232,0.551,0.338,0.805c0.106,0.253,0.191,0.465,0.257,0.637c0.012,0.034,0.035,0.058,0.07,0.074
	c0.034,0.016,0.069,0.025,0.104,0.025v0.119h-1.461v-0.118H30.389z M29.211,18.177l-0.723,1.729h1.461L29.211,18.177z"/>
<path fill="#5E3312" d="M36.663,17.11c0.034-0.027,0.053-0.086,0.053-0.178h0.104v1.443h-0.104c0-0.093-0.019-0.151-0.053-0.178
	c-0.035-0.027-0.072-0.04-0.107-0.04H35.3v3.044c0,0.073,0.021,0.119,0.064,0.138c0.044,0.02,0.09,0.033,0.137,0.04v0.119h-1.584
	v-0.119c0.048-0.006,0.093-0.02,0.136-0.04c0.045-0.019,0.067-0.065,0.067-0.138v-3.044h-1.257c-0.037,0-0.072,0.013-0.107,0.04
	c-0.034,0.026-0.054,0.085-0.054,0.178h-0.104v-1.443h0.104c0,0.092,0.02,0.151,0.054,0.178c0.035,0.026,0.07,0.039,0.107,0.039
	h3.692C36.591,17.148,36.628,17.136,36.663,17.11z"/>
<path fill="#5E3312" d="M41.555,17.11c0.034-0.027,0.052-0.086,0.052-0.178h0.105v1.443h-0.105c0-0.093-0.018-0.151-0.052-0.178
	c-0.035-0.027-0.072-0.04-0.107-0.04H40.19v3.044c0,0.073,0.021,0.119,0.065,0.138c0.045,0.02,0.09,0.033,0.137,0.04v0.119h-1.584
	v-0.119c0.048-0.006,0.093-0.02,0.136-0.04c0.046-0.019,0.067-0.065,0.067-0.138v-3.044h-1.259c-0.035,0-0.07,0.013-0.105,0.04
	c-0.036,0.026-0.054,0.085-0.054,0.178H37.49v-1.443h0.104c0,0.092,0.018,0.151,0.054,0.178c0.035,0.026,0.07,0.039,0.105,0.039
	h3.694C41.482,17.148,41.52,17.136,41.555,17.11z"/>
<path fill="#5E3312" d="M46.041,21.378c0.018,0,0.041-0.003,0.07-0.01c0.029-0.006,0.044-0.032,0.044-0.079
	c0-0.026-0.01-0.067-0.03-0.124c-0.021-0.056-0.045-0.117-0.071-0.183c-0.026-0.065-0.053-0.132-0.082-0.197
	c-0.031-0.066-0.053-0.122-0.072-0.168h-2.04c-0.013,0.046-0.03,0.102-0.057,0.168c-0.027,0.065-0.055,0.132-0.084,0.197
	c-0.029,0.066-0.057,0.127-0.08,0.183c-0.023,0.056-0.033,0.097-0.033,0.124c0,0.046,0.013,0.073,0.042,0.079
	c0.03,0.007,0.054,0.01,0.071,0.01v0.119H42.4v-0.119c0.035,0,0.07-0.009,0.105-0.025c0.034-0.016,0.058-0.041,0.069-0.074
	c0.177-0.461,0.354-0.917,0.537-1.369c0.182-0.451,0.344-0.859,0.488-1.225c0.144-0.365,0.263-0.668,0.355-0.909
	c0.094-0.241,0.142-0.377,0.142-0.411c0-0.06-0.038-0.092-0.113-0.099v-0.119h1.838v0.119c-0.076,0.007-0.114,0.039-0.114,0.099
	c0,0.02,0.031,0.107,0.093,0.262c0.062,0.155,0.141,0.35,0.241,0.583c0.1,0.234,0.21,0.493,0.33,0.776
	c0.119,0.283,0.24,0.567,0.361,0.85c0.119,0.283,0.232,0.551,0.338,0.805c0.105,0.253,0.189,0.465,0.254,0.637
	c0.014,0.034,0.037,0.058,0.072,0.074c0.034,0.016,0.069,0.025,0.104,0.025v0.119h-1.46L46.041,21.378L46.041,21.378z
	 M44.861,18.177l-0.721,1.729h1.46L44.861,18.177z"/>
<path fill="#5E3312" d="M52.72,20.479c0,0.066,0.015,0.125,0.044,0.178s0.069,0.079,0.122,0.079h0.079v0.118
	c-0.14,0.08-0.303,0.161-0.483,0.243c-0.183,0.083-0.378,0.156-0.59,0.223c-0.212,0.065-0.429,0.116-0.651,0.152
	c-0.223,0.037-0.446,0.054-0.668,0.054c-0.34,0-0.654-0.039-0.941-0.118c-0.288-0.079-0.532-0.209-0.734-0.391
	c-0.202-0.181-0.361-0.412-0.475-0.692c-0.116-0.28-0.172-0.613-0.172-1.002s0.064-0.723,0.192-1.003
	c0.13-0.28,0.303-0.511,0.52-0.692c0.218-0.181,0.466-0.316,0.744-0.404c0.277-0.09,0.567-0.134,0.866-0.134
	c0.222,0,0.427,0.015,0.611,0.044c0.185,0.03,0.346,0.064,0.488,0.104s0.256,0.074,0.348,0.104c0.091,0.029,0.151,0.044,0.181,0.044
	c0.046,0,0.078-0.01,0.091-0.029c0.016-0.02,0.034-0.043,0.058-0.07l0.106,0.02l-0.458,1.306l-0.105-0.061v-0.068
	c0-0.06-0.04-0.115-0.118-0.167c-0.079-0.053-0.18-0.101-0.295-0.145c-0.118-0.042-0.241-0.076-0.374-0.098
	c-0.132-0.023-0.251-0.035-0.355-0.035c-0.183,0-0.356,0.023-0.521,0.069c-0.163,0.046-0.306,0.122-0.426,0.228
	c-0.119,0.105-0.215,0.239-0.286,0.4c-0.07,0.162-0.104,0.357-0.104,0.588c0,0.237,0.033,0.439,0.104,0.607
	c0.071,0.168,0.168,0.307,0.29,0.416c0.124,0.108,0.268,0.189,0.433,0.242c0.163,0.053,0.343,0.079,0.537,0.079
	c0.146,0,0.289-0.011,0.431-0.034c0.14-0.023,0.281-0.061,0.422-0.113v-0.643h-0.739c-0.071,0-0.113,0.03-0.133,0.09
	c-0.018,0.059-0.026,0.108-0.026,0.148h-0.104v-1.225h0.104c0,0.039,0.009,0.089,0.026,0.148c0.02,0.06,0.062,0.089,0.133,0.089
	h1.831v1.351H52.72z"/>
<path fill="#5E3312" d="M57.98,20.381h0.105v1.293h-0.088c-0.029-0.092-0.061-0.145-0.093-0.158c-0.032-0.013-0.084-0.02-0.153-0.02
	h-3.925v-0.119c0.064-0.006,0.122-0.02,0.172-0.04c0.05-0.019,0.075-0.065,0.075-0.138v-3.756c0-0.072-0.025-0.118-0.075-0.138
	s-0.107-0.032-0.172-0.039v-0.119h3.994c0.035,0,0.071-0.012,0.107-0.039c0.034-0.027,0.052-0.086,0.052-0.178h0.105v1.324H57.98
	c0-0.099-0.018-0.163-0.052-0.192c-0.036-0.03-0.072-0.045-0.107-0.045h-2.567v0.8h1.652c0.035,0,0.071-0.015,0.106-0.044
	c0.035-0.029,0.053-0.09,0.053-0.183h0.104v1.285h-0.104c0-0.092-0.018-0.153-0.053-0.182c-0.035-0.03-0.071-0.045-0.106-0.045
	h-1.652v0.979h2.498C57.87,20.628,57.945,20.545,57.98,20.381z"/>
<path fill="#5E3312" d="M62.032,17.307c-0.04-0.02-0.066-0.032-0.084-0.039v-0.119h2.313c0.218,0,0.427,0.02,0.628,0.06
	c0.203,0.04,0.381,0.112,0.534,0.218c0.151,0.105,0.275,0.249,0.369,0.43c0.093,0.182,0.142,0.417,0.142,0.707
	c0,0.283-0.049,0.517-0.142,0.702c-0.094,0.185-0.218,0.33-0.369,0.435c-0.153,0.105-0.331,0.177-0.534,0.217
	c-0.201,0.04-0.41,0.06-0.628,0.06h-0.994v1.225c0,0.073,0.022,0.119,0.066,0.138c0.043,0.02,0.088,0.033,0.135,0.04V21.5h-1.521
	v-0.119c0.018-0.006,0.044-0.02,0.084-0.04c0.037-0.019,0.056-0.065,0.056-0.138v-3.756C62.088,17.373,62.069,17.327,62.032,17.307z
	 M64.104,19.145c0.246,0,0.422-0.044,0.527-0.134c0.106-0.089,0.159-0.238,0.159-0.449c0-0.205-0.047-0.352-0.142-0.445
	c-0.094-0.092-0.253-0.138-0.475-0.138h-0.906v1.166H64.104z"/>
<path fill="#5E3312" d="M70.236,21.378c0.018,0,0.041-0.003,0.07-0.01c0.028-0.006,0.044-0.032,0.044-0.079
	c0-0.026-0.01-0.067-0.03-0.124c-0.021-0.056-0.045-0.117-0.071-0.183c-0.026-0.065-0.054-0.132-0.083-0.197
	c-0.03-0.066-0.052-0.122-0.071-0.168h-2.041c-0.012,0.046-0.029,0.102-0.056,0.168c-0.027,0.065-0.055,0.132-0.084,0.197
	c-0.029,0.066-0.057,0.127-0.08,0.183s-0.035,0.097-0.035,0.124c0,0.046,0.015,0.073,0.044,0.079c0.028,0.007,0.054,0.01,0.071,0.01
	v0.119h-1.321v-0.119c0.035,0,0.071-0.009,0.106-0.025s0.059-0.041,0.07-0.074c0.177-0.461,0.354-0.917,0.537-1.369
	c0.181-0.451,0.344-0.859,0.488-1.225c0.144-0.365,0.262-0.668,0.355-0.909c0.095-0.241,0.14-0.377,0.14-0.411
	c0-0.06-0.036-0.092-0.113-0.099v-0.119h1.839v0.119c-0.075,0.007-0.113,0.039-0.113,0.099c0,0.02,0.029,0.107,0.091,0.262
	c0.062,0.155,0.143,0.35,0.243,0.583c0.099,0.234,0.209,0.493,0.329,0.776c0.121,0.283,0.241,0.567,0.362,0.85
	c0.119,0.283,0.232,0.551,0.338,0.805c0.104,0.253,0.189,0.465,0.254,0.637c0.013,0.034,0.036,0.058,0.071,0.074
	s0.07,0.025,0.105,0.025v0.119h-1.46L70.236,21.378L70.236,21.378z M69.057,18.177l-0.721,1.729h1.461L69.057,18.177z"/>
<path fill="#5E3312" d="M72.866,17.307c-0.042-0.02-0.084-0.032-0.133-0.039v-0.119h2.825c0.439,0,0.79,0.116,1.051,0.347
	C76.871,17.725,77,18.068,77,18.522c0,0.356-0.091,0.638-0.276,0.845c-0.184,0.208-0.418,0.371-0.698,0.489l0.782,1.324
	c0.029,0.053,0.072,0.099,0.128,0.139c0.056,0.039,0.116,0.059,0.181,0.059v0.119h-1.778v-0.119c0.041,0,0.087-0.009,0.137-0.025
	c0.051-0.016,0.075-0.051,0.075-0.104c0-0.033-0.03-0.116-0.093-0.247c-0.062-0.132-0.132-0.274-0.212-0.425
	c-0.077-0.151-0.155-0.296-0.228-0.435c-0.073-0.138-0.119-0.227-0.137-0.267h-0.845V21.2c0,0.073,0.022,0.119,0.066,0.138
	c0.044,0.02,0.099,0.033,0.163,0.04v0.119h-1.513v-0.119c0.033-0.006,0.071-0.02,0.113-0.04c0.041-0.019,0.062-0.065,0.062-0.138
	v-3.756C72.928,17.373,72.907,17.327,72.866,17.307z M75.285,19.047c0.188,0,0.335-0.045,0.445-0.134
	c0.107-0.089,0.162-0.222,0.162-0.4c0-0.151-0.044-0.279-0.135-0.381c-0.092-0.102-0.27-0.153-0.534-0.153h-1.188v1.068H75.285z"/>
<path fill="#5E3312" d="M81.087,16.481c-0.024-0.029-0.094-0.05-0.205-0.064v-0.118h2.921c0.404,0,0.757,0.066,1.056,0.197
	c0.299,0.132,0.546,0.315,0.739,0.548c0.193,0.235,0.339,0.51,0.436,0.825c0.096,0.316,0.145,0.659,0.145,1.028
	c0,0.336-0.052,0.661-0.154,0.973c-0.104,0.313-0.258,0.59-0.467,0.83c-0.207,0.241-0.466,0.433-0.773,0.578
	c-0.308,0.146-0.668,0.218-1.078,0.218h-2.823v-0.119c0.111-0.013,0.181-0.034,0.205-0.064c0.026-0.03,0.04-0.068,0.04-0.114v-4.605
	C81.127,16.55,81.113,16.512,81.087,16.481z M83.564,20.332c0.463,0,0.798-0.134,1.003-0.401c0.206-0.267,0.309-0.611,0.309-1.033
	s-0.103-0.766-0.309-1.032c-0.205-0.267-0.54-0.401-1.003-0.401h-1.117v2.867C82.447,20.332,83.564,20.332,83.564,20.332z"/>
<path fill="#5E3312" d="M91.211,20.381h0.105v1.293h-0.088c-0.029-0.092-0.061-0.145-0.093-0.158
	c-0.032-0.013-0.084-0.02-0.154-0.02h-3.925v-0.119c0.065-0.006,0.123-0.02,0.173-0.04c0.05-0.019,0.075-0.065,0.075-0.138v-3.756
	c0-0.072-0.025-0.118-0.075-0.138c-0.05-0.02-0.107-0.032-0.173-0.039v-0.119h3.995c0.035,0,0.07-0.012,0.105-0.039
	c0.036-0.027,0.054-0.086,0.054-0.178h0.105v1.324H91.21c0-0.099-0.018-0.163-0.054-0.192c-0.035-0.03-0.07-0.045-0.105-0.045
	h-2.569v0.8h1.654c0.035,0,0.07-0.015,0.106-0.044c0.035-0.029,0.051-0.09,0.051-0.183H90.4v1.285h-0.106
	c0-0.092-0.016-0.153-0.051-0.182c-0.036-0.03-0.071-0.045-0.106-0.045h-1.654v0.979h2.499
	C91.099,20.628,91.176,20.545,91.211,20.381z M89.371,16.605h-0.905l0.836-1.442h1.363L89.371,16.605z"/>
<path fill="#5E3312" d="M93.78,21.339c0.045,0.02,0.104,0.033,0.176,0.04v0.119h-1.382v-0.119c0.047-0.006,0.093-0.02,0.135-0.04
	c0.046-0.019,0.068-0.065,0.068-0.138v-3.756c0-0.072-0.022-0.118-0.068-0.138c-0.042-0.02-0.088-0.032-0.135-0.039v-0.119h1.908
	v0.119c-0.047,0.007-0.086,0.014-0.117,0.02c-0.034,0.006-0.049,0.027-0.049,0.06c0,0.026,0.033,0.122,0.102,0.287
	c0.066,0.165,0.145,0.346,0.231,0.543c0.088,0.198,0.172,0.384,0.247,0.558c0.076,0.175,0.123,0.289,0.141,0.341
	c0.071-0.158,0.152-0.331,0.243-0.519c0.09-0.188,0.175-0.366,0.254-0.533c0.08-0.168,0.146-0.315,0.199-0.44
	c0.051-0.125,0.077-0.204,0.077-0.237c0-0.033-0.016-0.053-0.048-0.06c-0.032-0.006-0.072-0.013-0.118-0.02v-0.119h1.918v0.119
	c-0.041,0.007-0.082,0.02-0.123,0.039c-0.041,0.02-0.062,0.066-0.062,0.138v3.756c0,0.073,0.021,0.119,0.062,0.138
	c0.041,0.02,0.082,0.033,0.123,0.04v0.119h-1.469v-0.119c0.062-0.006,0.117-0.02,0.161-0.04c0.044-0.019,0.068-0.065,0.068-0.138
	v-2.807h-0.02l-1.311,2.856l-1.267-2.856h-0.018v2.807C93.709,21.273,93.732,21.32,93.78,21.339z"/>
<path fill="#5E3312" d="M101.764,17.219c0.277,0.085,0.53,0.218,0.757,0.4c0.226,0.182,0.409,0.413,0.549,0.697
	c0.142,0.282,0.212,0.618,0.212,1.007c0,0.395-0.07,0.732-0.212,1.013c-0.14,0.28-0.323,0.509-0.549,0.687
	c-0.227,0.178-0.479,0.307-0.757,0.386c-0.278,0.079-0.557,0.118-0.831,0.118c-0.275,0-0.554-0.039-0.831-0.118
	c-0.279-0.079-0.531-0.208-0.758-0.386c-0.227-0.178-0.409-0.406-0.55-0.687c-0.142-0.28-0.211-0.618-0.211-1.013
	c0-0.389,0.069-0.725,0.211-1.007c0.141-0.284,0.323-0.516,0.55-0.697s0.479-0.315,0.758-0.4c0.277-0.086,0.556-0.129,0.831-0.129
	C101.207,17.09,101.485,17.132,101.764,17.219z M100.466,18.222c-0.146,0.057-0.276,0.135-0.388,0.238
	c-0.11,0.102-0.197,0.227-0.26,0.372c-0.062,0.146-0.092,0.311-0.092,0.496c0,0.186,0.03,0.351,0.092,0.496
	c0.062,0.146,0.149,0.27,0.26,0.373c0.111,0.103,0.241,0.182,0.388,0.238c0.146,0.056,0.302,0.084,0.467,0.084
	c0.17,0,0.326-0.029,0.47-0.084c0.144-0.056,0.272-0.136,0.383-0.238c0.112-0.103,0.198-0.227,0.261-0.373
	c0.06-0.145,0.093-0.31,0.093-0.496c0-0.185-0.033-0.351-0.093-0.496c-0.062-0.146-0.148-0.27-0.261-0.372
	c-0.11-0.103-0.239-0.182-0.383-0.238c-0.144-0.056-0.3-0.084-0.47-0.084C100.768,18.137,100.611,18.166,100.466,18.222z"/>
<path fill="#5E3312" d="M108.789,21.339c0.047,0.02,0.105,0.033,0.175,0.04v0.119h-1.626v-0.119c0.047,0,0.101-0.006,0.161-0.02
	c0.062-0.013,0.093-0.049,0.093-0.109c0-0.059-0.064-0.169-0.194-0.331c-0.128-0.161-0.292-0.361-0.495-0.598
	s-0.43-0.502-0.683-0.796c-0.252-0.292-0.502-0.604-0.749-0.934l-0.016,0.021V21.2c0,0.073,0.021,0.119,0.064,0.138
	c0.046,0.02,0.099,0.033,0.163,0.04v0.119h-1.505v-0.119c0.06-0.006,0.11-0.02,0.153-0.04c0.046-0.019,0.067-0.065,0.067-0.138
	v-3.756c0-0.072-0.024-0.118-0.07-0.138c-0.047-0.02-0.103-0.032-0.168-0.039v-0.119h2.095v0.119
	c-0.041,0.007-0.082,0.02-0.124,0.039c-0.041,0.02-0.062,0.066-0.062,0.138c0,0.014,0.049,0.082,0.146,0.203
	c0.098,0.122,0.223,0.275,0.374,0.459c0.153,0.185,0.323,0.389,0.511,0.613c0.187,0.224,0.376,0.448,0.562,0.672v-1.947
	c0-0.072-0.023-0.118-0.07-0.138s-0.104-0.032-0.175-0.039v-0.119h1.547v0.119c-0.069,0.007-0.128,0.02-0.175,0.039
	c-0.047,0.02-0.07,0.066-0.07,0.138V21.2C108.719,21.273,108.742,21.32,108.789,21.339z"/>
<path fill="#5E3312" d="M113.893,17.11c0.034-0.027,0.053-0.086,0.053-0.178h0.104v1.443h-0.104c0-0.093-0.019-0.151-0.053-0.178
	c-0.037-0.027-0.07-0.04-0.105-0.04h-1.26v3.044c0,0.073,0.022,0.119,0.066,0.138c0.044,0.02,0.09,0.033,0.137,0.04v0.119h-1.584
	v-0.119c0.047-0.006,0.093-0.02,0.137-0.04c0.043-0.019,0.064-0.065,0.064-0.138v-3.044h-1.257c-0.034,0-0.071,0.013-0.106,0.04
	c-0.035,0.026-0.051,0.085-0.051,0.178h-0.106v-1.443h0.106c0,0.092,0.016,0.151,0.051,0.178c0.035,0.026,0.072,0.039,0.106,0.039
	h3.696C113.822,17.148,113.855,17.136,113.893,17.11z"/>
<path fill="#5E3312" d="M118.378,21.378c0.019,0,0.042-0.003,0.071-0.01c0.029-0.006,0.044-0.032,0.044-0.079
	c0-0.026-0.011-0.067-0.031-0.124c-0.021-0.056-0.044-0.117-0.07-0.183c-0.026-0.065-0.055-0.132-0.084-0.197
	c-0.029-0.066-0.053-0.122-0.069-0.168h-2.041c-0.014,0.046-0.032,0.102-0.058,0.168c-0.026,0.065-0.054,0.132-0.084,0.197
	c-0.029,0.066-0.056,0.127-0.079,0.183s-0.035,0.097-0.035,0.124c0,0.046,0.015,0.073,0.044,0.079c0.029,0.007,0.053,0.01,0.07,0.01
	v0.119h-1.319v-0.119c0.035,0,0.071-0.009,0.104-0.025c0.036-0.016,0.06-0.041,0.071-0.074c0.176-0.461,0.354-0.917,0.536-1.369
	c0.183-0.451,0.346-0.859,0.488-1.225c0.145-0.365,0.264-0.668,0.356-0.909c0.094-0.241,0.141-0.377,0.141-0.411
	c0-0.06-0.038-0.092-0.114-0.099v-0.119h1.839v0.119c-0.077,0.007-0.113,0.039-0.113,0.099c0,0.02,0.03,0.107,0.092,0.262
	c0.062,0.155,0.142,0.35,0.241,0.583c0.101,0.234,0.211,0.493,0.331,0.776c0.119,0.283,0.24,0.567,0.36,0.85
	c0.119,0.283,0.232,0.551,0.339,0.805c0.105,0.253,0.19,0.465,0.256,0.637c0.01,0.034,0.033,0.058,0.068,0.074
	c0.036,0.016,0.071,0.025,0.107,0.025v0.119h-1.462v-0.118H118.378z M117.2,18.177l-0.722,1.729h1.46L117.2,18.177z"/>
<path fill="#5E3312" d="M125.057,20.479c0,0.066,0.014,0.125,0.045,0.178c0.027,0.053,0.068,0.079,0.122,0.079h0.079v0.118
	c-0.142,0.08-0.302,0.161-0.484,0.243c-0.182,0.083-0.378,0.156-0.59,0.223c-0.21,0.065-0.428,0.116-0.649,0.152
	c-0.224,0.037-0.446,0.054-0.669,0.054c-0.34,0-0.655-0.039-0.941-0.118c-0.287-0.079-0.533-0.209-0.735-0.391
	c-0.203-0.181-0.36-0.412-0.476-0.692c-0.114-0.28-0.17-0.613-0.17-1.002s0.064-0.723,0.192-1.003
	c0.129-0.28,0.303-0.511,0.521-0.692c0.215-0.181,0.463-0.316,0.742-0.404c0.278-0.09,0.568-0.134,0.867-0.134
	c0.223,0,0.426,0.015,0.609,0.044c0.186,0.03,0.35,0.064,0.489,0.104c0.143,0.04,0.257,0.074,0.349,0.104
	c0.091,0.029,0.149,0.044,0.181,0.044c0.047,0,0.076-0.01,0.093-0.029c0.013-0.02,0.032-0.043,0.056-0.07l0.107,0.02l-0.459,1.306
	l-0.106-0.061v-0.068c0-0.06-0.038-0.115-0.119-0.167c-0.077-0.053-0.176-0.101-0.294-0.145c-0.116-0.042-0.242-0.076-0.373-0.098
	c-0.133-0.023-0.25-0.035-0.356-0.035c-0.182,0-0.355,0.023-0.519,0.069c-0.165,0.046-0.308,0.122-0.427,0.228
	c-0.121,0.105-0.217,0.239-0.287,0.4c-0.07,0.162-0.105,0.357-0.105,0.588c0,0.237,0.035,0.439,0.105,0.607
	c0.07,0.168,0.168,0.307,0.29,0.416c0.123,0.108,0.268,0.189,0.433,0.242c0.163,0.053,0.343,0.079,0.536,0.079
	c0.146,0,0.29-0.011,0.432-0.034c0.14-0.023,0.28-0.061,0.422-0.113v-0.643h-0.738c-0.072,0-0.115,0.03-0.134,0.09
	c-0.017,0.059-0.025,0.108-0.025,0.148h-0.105v-1.225h0.105c0,0.039,0.009,0.089,0.025,0.148c0.019,0.06,0.062,0.089,0.134,0.089
	h1.829v1.351H125.057z"/>
<path fill="#5E3312" d="M130.318,20.381h0.105v1.293h-0.088c-0.029-0.092-0.061-0.145-0.093-0.158s-0.084-0.02-0.154-0.02h-3.925
	v-0.119c0.065-0.006,0.123-0.02,0.171-0.04c0.05-0.019,0.075-0.065,0.075-0.138v-3.756c0-0.072-0.025-0.118-0.075-0.138
	c-0.048-0.02-0.105-0.032-0.171-0.039v-0.119h3.995c0.035,0,0.07-0.012,0.105-0.039c0.036-0.027,0.054-0.086,0.054-0.178h0.105
	v1.324h-0.105c0-0.099-0.018-0.163-0.054-0.192c-0.035-0.03-0.07-0.045-0.105-0.045h-2.569v0.8h1.654
	c0.035,0,0.069-0.015,0.104-0.044c0.037-0.029,0.053-0.09,0.053-0.183h0.106v1.285H129.4c0-0.092-0.016-0.153-0.053-0.182
	c-0.035-0.03-0.069-0.045-0.104-0.045h-1.654v0.979h2.499C130.206,20.628,130.282,20.545,130.318,20.381z"/>
</svg>
