<?xml version="1.0" encoding="utf-8"?>
<!-- Generator: Adobe Illustrator 15.0.0, SVG Export Plug-In  -->
<!DOCTYPE svg PUBLIC "-//W3C//DTD SVG 1.1//EN" "http://www.w3.org/Graphics/SVG/1.1/DTD/svg11.dtd" [
	<!ENTITY ns_flows "http://ns.adobe.com/Flows/1.0/">
]>
<svg version="1.1"
	 xmlns="http://www.w3.org/2000/svg" xmlns:xlink="http://www.w3.org/1999/xlink" xmlns:a="http://ns.adobe.com/AdobeSVGViewerExtensions/3.0/"
	 x="0px" y="0px" width="222px" height="44px" viewBox="-2.405 -3.334 222 44"
	 overflow="visible" enable-background="new -2.405 -3.334 222 44" xml:space="preserve">
<defs>
</defs>
<path fill="#FFFDE5" stroke="#FFFDE5" stroke-width="0.6014" d="M23.209,26.385l-0.943,3.46c-0.821,0.127-1.247,0.192-1.272,0.192
	c-2.107,0-4.528-0.674-7.266-2.021c-3.066-1.5-5.323-2.357-6.771-2.565c-1.289,0.803-2.329,1.205-3.121,1.205
	c-0.656,0-0.985-0.115-0.985-0.349c0-0.44,0.315-0.764,0.944-0.972c0.354-0.128,1.437-0.35,3.243-0.66
	c1.202-1.062,2.16-3.031,2.874-5.908c0.603-2.645,1.203-5.272,1.803-7.89c0.933-3.058,2.287-5.312,4.065-6.763
	c-1.206,0.181-1.873,0.271-2.01,0.271c-1.015,0-2.319-0.155-3.922-0.465C8.247,3.609,6.995,3.453,6.092,3.453
	c-1.178,0-2.209,0.37-3.099,1.108c-0.887,0.74-1.332,1.653-1.332,2.74c0,0.831,0.29,1.575,0.88,2.235
	c0.588,0.661,1.279,0.992,2.074,0.992c1.204,0,2.024-0.558,2.462-1.671l0.247,0.038L6.543,11.11
	c-0.683,0.596-1.423,0.894-2.215,0.894c-0.931,0-1.731-0.401-2.402-1.205c-0.67-0.802-1.007-1.697-1.007-2.682
	c0-1.632,0.61-3.038,1.827-4.216c1.219-1.181,2.689-1.771,4.413-1.771c1.15,0,2.702,0.189,4.66,0.564
	c1.955,0.376,3.688,0.564,5.189,0.564c0.743-0.984,1.671-1.477,2.794-1.477c0.054,0,0.082,0.168,0.082,0.505
	c0,0.182-0.363,0.486-1.089,0.913c-0.724,0.429-1.32,0.707-1.787,0.836c-1.203,0.855-2.146,2.773-2.83,5.752
	c-0.604,2.72-1.203,5.442-1.807,8.162c-0.985,3.109-2.437,5.299-4.351,6.568c1.97,0.7,3.953,1.414,5.953,2.138
	c2.57,0.855,4.789,1.284,6.647,1.284c1.069,0,1.793-0.519,2.175-1.555H23.209z"/>
<path fill="#FFFDE5" stroke="#FFFDE5" stroke-width="0.6014" d="M26.452,7.729l-0.123-0.429c0.903-0.31,1.616-0.906,2.134-1.787
	c-0.082,0.026-0.177,0.04-0.286,0.04c-0.52,0-0.781-0.377-0.781-1.127c0-0.441,0.138-0.882,0.409-1.322
	c0.275-0.44,0.63-0.661,1.069-0.661c0.52,0,0.782,0.363,0.782,1.088c0,0.83-0.332,1.658-0.987,2.487
	C28.013,6.848,27.273,7.417,26.452,7.729z"/>
<path fill="#FFFDE5" stroke="#FFFDE5" stroke-width="0.6014" d="M60.07,24.095c-1.066,1.786-2.258,2.678-3.572,2.678
	c-1.313,0-2.175-1.157-2.584-3.472c-0.22-1.197-0.327-3.354-0.327-6.476v-0.117c-0.907-0.053-2.327-0.129-4.271-0.234
	c-1.671,3.836-3.081,6.426-4.229,7.773c-1.943,2.306-4.434,3.459-7.47,3.459c-1.833,0-3.506-0.636-5.011-1.905
	c-1.503-1.269-2.257-2.798-2.257-4.586c0-1.76,0.611-3.296,1.828-4.605c1.214-1.308,2.702-1.961,4.452-1.961
	c1.424,0,2.601,0.802,3.529,2.408c2.301-1.087,4.626-1.631,6.98-1.631h1.229c2.492-4.638,5.023-8.228,7.595-10.767
	c-0.985,0.233-1.737,0.35-2.259,0.35c-0.903,0-2.062-0.136-3.49-0.408c-1.423-0.273-2.57-0.408-3.443-0.408
	c-1.343,0-2.494,0.31-3.447,0.932c-1.071,0.7-1.605,1.607-1.605,2.721c0,0.854,0.325,1.587,0.964,2.195
	c0.645,0.61,1.419,0.913,2.322,0.913c0.877,0,1.602-0.35,2.175-1.048l0.165,0.039l-0.697,1.671
	c-0.438,0.363-1.108,0.544-2.014,0.544c-1.04,0-1.887-0.454-2.542-1.36c-0.604-0.829-0.905-1.813-0.905-2.953
	c0-1.478,0.696-2.683,2.093-3.616c1.288-0.828,2.805-1.243,4.557-1.243c0.956,0,2.211,0.143,3.76,0.427
	c1.545,0.286,2.793,0.427,3.752,0.427c1.179,0,2.683-0.504,4.517-1.515l0.124,0.078c-1.368,2.721-2.313,4.846-2.833,6.374
	c-0.714,2.126-1.082,4.366-1.111,6.725c0.494-0.052,0.905-0.239,1.234-0.564c0.33-0.324,0.463-0.706,0.407-1.145h0.126l0.411,1.903
	c-0.385,0.596-1.108,0.946-2.179,1.049c0,2.54,0.098,4.379,0.291,5.519c0.271,1.893,0.848,2.838,1.723,2.838
	c0.412,0,1.013-0.375,1.807-1.127L60.07,24.095z M47.837,16.396h-1.064c-2.027,0-4.164,0.454-6.406,1.36
	c0.109,0.597-0.029,1.094-0.409,1.497c-0.385,0.401-0.82,0.602-1.313,0.602c-0.385,0-0.576-0.259-0.576-0.777
	c0-0.362,0.166-0.7,0.493-1.011c0.027,0,0.368-0.247,1.026-0.739c-0.685-1.321-1.452-1.982-2.299-1.982
	c-1.341,0-2.429,0.583-3.262,1.749c-0.836,1.166-1.254,2.486-1.254,3.964c0,1.503,0.492,2.882,1.476,4.139
	c0.988,1.257,2.081,1.886,3.288,1.886c2.268,0,4.239-1.051,5.909-3.148C44.348,22.822,45.812,20.31,47.837,16.396z M56.254,5.59
	c-2.246,1.841-4.407,5.132-6.487,9.874c0.467,0,1.124,0,1.971,0c0.848,0.026,1.479,0.039,1.891,0.039
	c0.078-1.632,0.354-3.251,0.819-4.858C54.666,9.919,55.27,8.233,56.254,5.59z"/>
<path fill="#FFFDE5" stroke="#FFFDE5" stroke-width="0.6014" d="M73.041,10.567c-0.629,1.788-1.271,2.681-1.931,2.681
	c-0.355,0-0.791-0.124-1.314-0.368c-0.519-0.248-0.887-0.371-1.104-0.371c-0.714,0-2.193,1.793-4.435,5.379
	c-0.765,3.404-1.15,6.25-1.15,8.535c-0.409,0.026-1.229,0.144-2.462,0.35c0-3.662,1.067-8.352,3.2-14.069
	c0.082-0.207,0.04-0.311-0.121-0.311c-0.276,0-1.055,0.453-2.341,1.36l-0.248-0.311c2.027-1.737,3.367-2.605,4.024-2.605
	c0.383,0,0.573,0.352,0.573,1.05c0,0.389-0.121,0.985-0.368,1.788c-0.384,1.141-0.603,1.827-0.655,2.06
	c1.12-1.789,1.831-2.875,2.131-3.264c0.905-1.244,1.672-1.867,2.301-1.867c0.327,0,0.798,0.15,1.415,0.448
	c0.615,0.298,0.993,0.447,1.13,0.447c0.435,0,0.794-0.351,1.068-1.049L73.041,10.567z"/>
<path fill="#FFFDE5" stroke="#FFFDE5" stroke-width="0.6014" d="M81.458,2.754l-0.782,1.205c-0.246,0.363-0.466,0.544-0.658,0.544
	c-0.352,0-0.766-0.195-1.229-0.583c-0.466-0.389-0.849-0.582-1.149-0.582c-0.549,0-1.286,1.14-2.217,3.419
	c-0.875,2.073-1.711,4.586-2.506,7.541c1.752-2.461,3.298-3.694,4.642-3.694c0.848,0,1.477,0.494,1.887,1.478
	c0.354,0.778,0.533,1.711,0.533,2.8c0,2.693-0.835,5.35-2.503,7.966c-1.67,2.618-3.325,3.925-4.966,3.925
	c-1.013,0-1.778-0.544-2.299-1.632c-0.466-0.932-0.698-2.138-0.698-3.615c0-0.362,0.013-0.725,0.041-1.088
	c0.273-3.006,1.457-6.794,3.548-11.367c2.098-4.573,3.719-6.86,4.868-6.86c0.327,0,0.736,0.174,1.229,0.523
	c0.493,0.351,0.905,0.525,1.232,0.525c0.276,0,0.52-0.194,0.74-0.583L81.458,2.754z M77.639,14.725c0-0.646-0.095-1.27-0.284-1.865
	c-0.194-0.7-0.456-1.051-0.784-1.051c-0.629,0-1.424,0.792-2.379,2.372c-0.823,1.348-1.576,2.928-2.26,4.742
	c-0.245,1.269-0.369,2.423-0.369,3.458c0,0.622,0.096,1.282,0.289,1.982c0.27,0.96,0.643,1.438,1.106,1.438
	c1.012,0,2.048-1.262,3.1-3.789C77.11,19.486,77.639,17.056,77.639,14.725z"/>
<path fill="#FFFDE5" stroke="#FFFDE5" stroke-width="0.6014" d="M92.66,10.567c-0.629,1.788-1.271,2.681-1.929,2.681
	c-0.355,0-0.794-0.124-1.312-0.368c-0.52-0.248-0.892-0.371-1.108-0.371c-0.712,0-2.189,1.793-4.433,5.379
	c-0.769,3.404-1.152,6.25-1.152,8.535c-0.407,0.026-1.229,0.144-2.461,0.35c0-3.662,1.066-8.352,3.201-14.069
	c0.083-0.207,0.041-0.311-0.121-0.311c-0.276,0-1.056,0.453-2.341,1.36l-0.246-0.311c2.023-1.737,3.366-2.605,4.023-2.605
	c0.381,0,0.572,0.352,0.572,1.05c0,0.389-0.122,0.985-0.369,1.788c-0.385,1.141-0.604,1.827-0.658,2.06
	c1.123-1.789,1.836-2.875,2.138-3.264c0.902-1.244,1.666-1.867,2.3-1.867c0.326,0,0.799,0.15,1.413,0.448
	c0.618,0.298,0.992,0.447,1.129,0.447c0.439,0,0.791-0.351,1.068-1.049L92.66,10.567z"/>
<path fill="#FFFDE5" stroke="#FFFDE5" stroke-width="0.6014" d="M99.189,12.782c0,1.789-1.097,3.485-3.284,5.091
	c-1.37,0.986-2.887,1.801-4.557,2.449c-0.111,0.545-0.165,1.141-0.165,1.788c0,2.358,0.546,3.537,1.643,3.537
	c0.741,0,1.421-0.435,2.053-1.303c0.63-0.869,0.944-1.78,0.944-2.74c0-0.233-0.014-0.453-0.041-0.661l0.408-0.077l0.37,2.331
	c-0.273,0.699-0.778,1.413-1.519,2.137c-0.958,0.96-1.941,1.438-2.955,1.438c-1.123,0-1.997-0.426-2.626-1.281
	c-0.578-0.752-0.861-1.685-0.861-2.8c0-2.539,1.067-5.182,3.199-7.928c2.081-2.642,3.968-3.964,5.667-3.964
	C98.613,10.799,99.189,11.459,99.189,12.782z M97.011,12.82c0-0.777-0.147-1.164-0.45-1.164c-0.737,0-1.646,0.821-2.729,2.467
	c-1.082,1.645-1.84,3.428-2.278,5.344c1.174-0.415,2.341-1.27,3.488-2.565C96.355,15.478,97.011,14.116,97.011,12.82z"/>
<path fill="#FFFDE5" stroke="#FFFDE5" stroke-width="0.6014" d="M145.564,3.415c-0.574,0.934-1.094,1.399-1.561,1.399
	c-0.162,0-0.521-0.195-1.067-0.583c-0.545-0.388-1.027-0.556-1.436-0.504c-1.534,0.181-2.942,1.516-4.228,4.003
	c-0.959,1.892-1.891,4.573-2.792,8.045c-0.63,2.54-1.245,5.093-1.848,7.656c-0.22,2.281-0.685,3.42-1.396,3.42
	c-0.465,0-0.696-0.181-0.696-0.543c0-0.959,0.449-1.982,1.353-3.071c0.273-1.839,0.411-3.264,0.411-4.274
	c0-4.794-0.861-8.642-2.587-11.544c-0.573,1.318-1.271,4.091-2.094,8.324c-0.683,3.613-1.573,6.194-2.667,7.743
	c-1.645,2.245-4.187,3.367-7.635,3.367c-1.695,0-3.188-0.385-4.475-1.156c-1.45-0.849-2.175-1.967-2.175-3.355
	c0-1.362,0.438-2.55,1.313-3.565c0.876-1.016,1.984-1.523,3.324-1.523c0.985,0,1.859,0.324,2.629,0.972l-1.56,2.176l-0.207-0.232
	c0.026-0.208,0.041-0.415,0.041-0.622c0-1.088-0.355-1.633-1.067-1.633c-0.709,0-1.272,0.415-1.685,1.245
	c-0.382,0.725-0.571,1.579-0.571,2.564c0,1.244,0.545,2.318,1.642,3.227c1.095,0.907,2.27,1.36,3.529,1.36
	c2.187,0,3.996-1.191,5.416-3.576c0.931-1.502,1.943-4.134,3.04-7.89c1.174-4.042,2.108-6.749,2.79-8.123
	c-1.778-2.592-4.421-3.888-7.92-3.888c-1.425,0-2.643,0.338-3.655,1.011c-1.148,0.727-1.725,1.672-1.725,2.838
	c0,0.984,0.344,1.84,1.026,2.565c0.685,0.725,1.532,1.088,2.545,1.088c0.877,0,1.602-0.479,2.177-1.439l0.288,0.039l-0.822,2.255
	c-0.602,0.467-1.136,0.698-1.602,0.698c-1.231,0-2.271-0.479-3.118-1.437c-0.851-0.958-1.273-2.06-1.273-3.305
	c0-1.734,0.821-3.133,2.461-4.197c1.506-0.985,3.301-1.477,5.381-1.477c2.38,0,4.336,0.608,5.867,1.826
	c2.3,1.815,4.01,5.105,5.134,9.874c2.433-6.894,4.979-10.341,7.634-10.341c0.384,0,0.848,0.188,1.396,0.564
	c0.547,0.376,0.915,0.564,1.107,0.564c0.384,0,0.792-0.233,1.231-0.7L145.564,3.415z"/>
<path fill="#FFFDE5" stroke="#FFFDE5" stroke-width="0.6014" d="M151.271,14.25c0,3.23-1.026,6.203-3.079,8.917
	c-1.833,2.403-3.447,3.605-4.842,3.605c-1.124,0-1.999-0.426-2.628-1.278c-0.573-0.75-0.861-1.68-0.861-2.792
	c0-2.094,0.927-4.575,2.79-7.445c2.023-3.102,4.049-4.654,6.074-4.654c0.794,0,1.416,0.343,1.869,1.028
	C151.047,12.318,151.271,13.192,151.271,14.25z M148.972,13.597c0-0.983-0.383-1.476-1.149-1.476c-1.313,0-2.538,1.088-3.673,3.264
	c-1.136,2.177-1.702,4.43-1.702,6.764c0,2.176,0.379,3.264,1.147,3.264c1.093,0,2.23-1.128,3.406-3.382
	C148.315,19.545,148.972,16.733,148.972,13.597z"/>
<path fill="#FFFDE5" stroke="#FFFDE5" stroke-width="0.6014" d="M163.46,10.567c-0.629,1.788-1.271,2.681-1.926,2.681
	c-0.358,0-0.794-0.124-1.314-0.368c-0.52-0.248-0.89-0.371-1.109-0.371c-0.711,0-2.189,1.793-4.433,5.379
	c-0.765,3.404-1.151,6.25-1.151,8.535c-0.409,0.026-1.231,0.144-2.461,0.35c0-3.662,1.066-8.352,3.201-14.069
	c0.081-0.207,0.04-0.311-0.123-0.311c-0.271,0-1.054,0.453-2.338,1.36l-0.247-0.311c2.023-1.737,3.366-2.605,4.023-2.605
	c0.38,0,0.572,0.352,0.572,1.05c0,0.389-0.123,0.985-0.368,1.788c-0.387,1.141-0.603,1.827-0.658,2.06
	c1.122-1.789,1.834-2.875,2.138-3.264c0.901-1.244,1.667-1.867,2.298-1.867c0.327,0,0.8,0.15,1.414,0.448
	c0.618,0.298,0.992,0.447,1.13,0.447c0.438,0,0.794-0.351,1.067-1.049L163.46,10.567z"/>
<path fill="#FFFDE5" stroke="#FFFDE5" stroke-width="0.6014" d="M175.983,23.746l-2.34,2.359c-0.44,0.446-0.892,0.668-1.357,0.668
	c-0.93,0-1.395-0.974-1.395-2.922c0-1.065,0.411-3.145,1.229-6.236c0.823-3.093,1.231-4.599,1.231-4.521
	c0-0.234-0.121-0.351-0.369-0.351c-0.768,0-2.012,1.026-3.733,3.079c-0.494,1.845-0.851,3.21-1.067,4.093
	c-0.356,1.533-0.562,2.65-0.618,3.352c-0.08,1.091-0.122,2.143-0.122,3.157c-0.381,0.026-1.176,0.144-2.381,0.35
	c0-0.856,0.042-1.753,0.124-2.689c0.108-1.117,0.572-3.26,1.396-6.431c0.821-3.065,1.229-4.585,1.229-4.56
	c0-0.234-0.12-0.351-0.368-0.351c-0.493,0-1.155,0.527-1.989,1.58c-0.835,1.052-1.638,2.084-2.4,3.098
	c-0.851,3.924-1.276,6.924-1.276,9.003c-0.383,0.026-1.178,0.144-2.379,0.35c0-3.662,1.065-8.352,3.201-14.069
	c0.083-0.207,0.039-0.311-0.123-0.311c-0.273,0-1.056,0.453-2.341,1.36l-0.244-0.311c2.025-1.737,3.366-2.605,4.022-2.605
	c0.384,0,0.573,0.352,0.573,1.05c0,0.389-0.138,0.998-0.409,1.828c-0.385,1.191-0.601,1.905-0.658,2.137
	c1.37-1.789,2.261-2.876,2.669-3.266c1.122-1.166,2.202-1.75,3.243-1.75c0.52,0,0.779,0.39,0.779,1.167
	c0,0.131-0.149,0.856-0.453,2.177c1.919-2.229,3.64-3.344,5.175-3.344c0.519,0,0.778,0.39,0.778,1.167
	c0,0.181-0.443,1.854-1.334,5.014c-0.889,3.162-1.332,5.287-1.332,6.375c0,1.19,0.205,1.788,0.614,1.788
	c0.327,0,1.012-0.57,2.052-1.71L175.983,23.746z"/>
<path fill="#FFFDE5" stroke="#FFFDE5" stroke-width="0.6014" d="M189.075,10.528c-0.655,0.466-1.096,1.114-1.313,1.943l-0.575,0.038
	c-1.424,4.716-2.133,8.344-2.133,10.884c0,1.19,0.203,1.788,0.614,1.788c0.33,0,1.015-0.57,2.052-1.71l0.368,0.275l-2.339,2.359
	c-0.437,0.446-0.917,0.668-1.434,0.668c-0.44,0-0.794-0.338-1.069-1.019c-0.217-0.547-0.327-1.188-0.327-1.919
	c0-0.604,0.026-1.165,0.081-1.686c-1.972,3.134-3.447,4.701-4.434,4.701c-0.737,0-1.314-0.426-1.722-1.283
	c-0.357-0.725-0.535-1.566-0.535-2.526c0-2.642,0.82-5.233,2.464-7.772c1.943-3.031,4.432-4.547,7.47-4.547
	c1.287,0,2.189-0.118,2.71-0.351L189.075,10.528z M185.134,12.548l-1.641,0.156c-3.12,0.337-4.678,3.834-4.678,10.494
	c0,1.321,0.203,1.982,0.612,1.982c0.632,0,1.821-1.58,3.572-4.743C183.767,17.174,184.479,14.544,185.134,12.548z"/>
<path fill="#FFFDE5" stroke="#FFFDE5" stroke-width="0.6014" d="M199.502,23.746l-2.339,2.359c-0.438,0.446-0.891,0.668-1.354,0.668
	c-0.959,0-1.438-0.974-1.438-2.922c0-1.065,0.412-3.145,1.232-6.236c0.821-3.093,1.229-4.599,1.229-4.521
	c0-0.234-0.121-0.351-0.365-0.351c-0.823,0-2.506,1.559-5.051,4.678c-0.85,3.715-1.273,6.717-1.273,9.003
	c-0.382,0.026-1.189,0.144-2.423,0.35c0-3.559,1.082-8.249,3.243-14.069c0.056-0.207,0.015-0.311-0.122-0.311
	c-0.383,0-1.162,0.453-2.341,1.36l-0.245-0.311c2.026-1.737,3.352-2.605,3.981-2.605c0.411,0,0.614,0.352,0.614,1.05
	c0,0.389-0.136,0.998-0.408,1.828c-0.386,1.191-0.604,1.905-0.656,2.137c2.572-3.343,4.76-5.015,6.568-5.015
	c0.519,0,0.777,0.39,0.777,1.167c0,0.181-0.449,1.854-1.351,5.014c-0.906,3.162-1.357,5.287-1.357,6.375
	c0,1.19,0.217,1.788,0.657,1.788c0.327,0,1.011-0.57,2.051-1.71L199.502,23.746z"/>
<path fill="#FFFDE5" stroke="#FFFDE5" stroke-width="0.6014" d="M218.302,2.716l-0.78,1.243c-0.219,0.363-0.437,0.544-0.654,0.544
	c-0.357,0-0.769-0.195-1.233-0.583c-0.467-0.389-0.863-0.582-1.191-0.582c-0.795,0-2.038,2.552-3.735,7.656
	c-1.777,5.261-2.666,9.393-2.666,12.399c0,1.19,0.217,1.788,0.657,1.788c0.328,0,1.01-0.57,2.051-1.71l0.367,0.275l-2.337,2.359
	c-0.44,0.446-0.92,0.668-1.438,0.668c-0.933,0-1.396-0.979-1.396-2.941c0-0.523,0.015-0.916,0.042-1.177
	c-1.808,2.798-3.176,4.197-4.103,4.197c-0.743,0-1.314-0.426-1.727-1.283c-0.356-0.725-0.534-1.566-0.534-2.526
	c0-2.617,0.822-5.221,2.464-7.811c1.915-3.084,4.321-4.64,7.225-4.664c1.01-2.385,2.033-4.379,3.06-5.986
	c1.025-1.607,1.825-2.41,2.398-2.41c0.356,0,0.779,0.183,1.275,0.545c0.492,0.362,0.898,0.543,1.229,0.543
	c0.246,0,0.492-0.207,0.738-0.622L218.302,2.716z M208.409,12.626c-0.273,0-0.808,0.026-1.603,0.078
	c-1.806,0.104-3.104,1.451-3.896,4.042c-0.523,1.762-0.784,3.913-0.784,6.452c0,1.321,0.207,1.982,0.618,1.982
	c0.629,0,1.818-1.58,3.57-4.743C207.109,17.044,207.809,14.439,208.409,12.626z"/>
<path fill="#005826" stroke="#005826" stroke-width="0.6014" d="M22.592,25.214l-0.944,3.46c-0.818,0.129-1.244,0.193-1.272,0.193
	c-2.107,0-4.531-0.674-7.266-2.021c-3.068-1.502-5.324-2.358-6.773-2.565c-1.288,0.804-2.325,1.206-3.118,1.206
	c-0.658,0-0.985-0.117-0.985-0.351c0-0.44,0.313-0.763,0.943-0.972c0.354-0.129,1.435-0.35,3.242-0.66
	c1.205-1.063,2.161-3.031,2.871-5.909c0.604-2.642,1.205-5.271,1.807-7.889c0.932-3.057,2.285-5.311,4.065-6.762
	c-1.205,0.181-1.876,0.271-2.01,0.271c-1.014,0-2.32-0.154-3.924-0.465c-1.6-0.312-2.849-0.466-3.755-0.466
	c-1.176,0-2.208,0.368-3.097,1.107C1.486,4.129,1.041,5.042,1.041,6.13c0,0.83,0.291,1.575,0.882,2.236
	c0.59,0.661,1.277,0.99,2.071,0.99c1.204,0,2.025-0.556,2.463-1.671l0.25,0.04L5.927,9.94c-0.688,0.597-1.424,0.893-2.219,0.893
	c-0.931,0-1.729-0.401-2.402-1.205c-0.67-0.803-1.005-1.696-1.005-2.682c0-1.632,0.608-3.037,1.825-4.217
	c1.219-1.178,2.689-1.768,4.416-1.768c1.147,0,2.699,0.188,4.657,0.563c1.956,0.376,3.688,0.563,5.191,0.563
	c0.741-0.984,1.672-1.477,2.794-1.477c0.056,0,0.081,0.168,0.081,0.504c0,0.182-0.361,0.486-1.09,0.915
	c-0.722,0.426-1.319,0.705-1.785,0.835c-1.202,0.855-2.146,2.772-2.831,5.751c-0.602,2.721-1.204,5.442-1.808,8.163
	c-0.983,3.109-2.432,5.299-4.35,6.568c1.971,0.701,3.955,1.414,5.953,2.139c2.571,0.854,4.788,1.282,6.65,1.282
	c1.065,0,1.792-0.518,2.173-1.554H22.592z"/>
<path fill="#005826" stroke="#005826" stroke-width="0.6014" d="M25.833,6.558L25.709,6.13c0.904-0.311,1.614-0.907,2.137-1.787
	c-0.081,0.025-0.18,0.039-0.289,0.039c-0.52,0-0.779-0.376-0.779-1.127c0-0.442,0.139-0.881,0.41-1.322
	c0.275-0.44,0.63-0.66,1.066-0.66c0.521,0,0.78,0.362,0.78,1.087c0,0.829-0.327,1.659-0.985,2.487
	C27.393,5.677,26.654,6.247,25.833,6.558z"/>
<path fill="#005826" stroke="#005826" stroke-width="0.6014" d="M59.45,22.923c-1.065,1.787-2.256,2.679-3.57,2.679
	c-1.312,0-2.175-1.157-2.586-3.472c-0.219-1.196-0.327-3.354-0.327-6.476v-0.117c-0.904-0.054-2.327-0.13-4.269-0.235
	c-1.67,3.836-3.082,6.426-4.231,7.774c-1.942,2.306-4.431,3.459-7.469,3.459c-1.833,0-3.502-0.635-5.009-1.906
	c-1.504-1.268-2.256-2.798-2.256-4.586c0-1.761,0.608-3.296,1.825-4.605c1.22-1.307,2.702-1.962,4.454-1.962
	c1.423,0,2.6,0.803,3.53,2.41c2.3-1.089,4.624-1.633,6.979-1.633h1.23c2.491-4.638,5.021-8.225,7.596-10.765
	c-0.987,0.232-1.741,0.349-2.26,0.349c-0.902,0-2.068-0.136-3.489-0.408c-1.424-0.272-2.571-0.409-3.447-0.409
	c-1.342,0-2.49,0.311-3.446,0.933c-1.071,0.7-1.602,1.607-1.602,2.721c0,0.854,0.32,1.588,0.964,2.195
	c0.64,0.609,1.415,0.915,2.317,0.915c0.875,0,1.602-0.351,2.176-1.049l0.165,0.038l-0.7,1.671c-0.436,0.363-1.106,0.544-2.009,0.544
	c-1.041,0-1.89-0.452-2.545-1.36C40.868,8.8,40.57,7.815,40.57,6.674c0-1.477,0.696-2.682,2.091-3.614
	c1.289-0.828,2.807-1.244,4.559-1.244c0.956,0,2.208,0.143,3.757,0.428c1.546,0.286,2.796,0.426,3.756,0.426
	c1.175,0,2.683-0.504,4.513-1.515l0.125,0.077c-1.368,2.721-2.312,4.846-2.834,6.375c-0.709,2.125-1.081,4.365-1.107,6.724
	c0.493-0.052,0.904-0.239,1.231-0.564c0.329-0.322,0.464-0.705,0.41-1.146h0.124l0.409,1.904c-0.382,0.596-1.108,0.946-2.175,1.049
	c0,2.539,0.097,4.379,0.286,5.52c0.274,1.892,0.851,2.837,1.725,2.837c0.411,0,1.014-0.376,1.806-1.128L59.45,22.923z M47.22,15.225
	h-1.067c-2.026,0-4.16,0.455-6.402,1.361c0.107,0.597-0.03,1.095-0.413,1.496c-0.381,0.402-0.82,0.603-1.311,0.603
	c-0.385,0-0.576-0.259-0.576-0.777c0-0.363,0.162-0.7,0.49-1.011c0.029,0,0.37-0.246,1.026-0.739
	c-0.685-1.322-1.451-1.981-2.296-1.981c-1.341,0-2.431,0.583-3.264,1.748c-0.836,1.167-1.255,2.487-1.255,3.964
	c0,1.504,0.493,2.883,1.479,4.139c0.986,1.258,2.079,1.885,3.285,1.885c2.272,0,4.241-1.049,5.91-3.148
	C43.729,21.652,45.193,19.139,47.22,15.225z M55.634,4.42c-2.243,1.841-4.406,5.13-6.486,9.872c0.468,0,1.124,0,1.971,0
	c0.848,0.026,1.479,0.039,1.889,0.039c0.082-1.632,0.354-3.25,0.821-4.859C54.046,8.748,54.649,7.063,55.634,4.42z"/>
<path fill="#005826" stroke="#005826" stroke-width="0.6014" d="M72.425,9.396c-0.634,1.789-1.273,2.682-1.932,2.682
	c-0.357,0-0.794-0.123-1.314-0.37c-0.518-0.246-0.888-0.369-1.106-0.369c-0.711,0-2.189,1.793-4.434,5.378
	c-0.767,3.404-1.149,6.25-1.149,8.536c-0.411,0.025-1.232,0.144-2.463,0.35c0-3.662,1.066-8.352,3.2-14.068
	c0.084-0.208,0.043-0.311-0.122-0.311c-0.273,0-1.053,0.452-2.34,1.36l-0.246-0.311c2.027-1.735,3.365-2.605,4.021-2.605
	c0.384,0,0.578,0.351,0.578,1.051c0,0.387-0.126,0.984-0.373,1.787c-0.382,1.141-0.602,1.826-0.653,2.06
	c1.121-1.787,1.831-2.876,2.133-3.265c0.903-1.244,1.669-1.866,2.298-1.866c0.33,0,0.801,0.151,1.417,0.447
	c0.615,0.298,0.99,0.447,1.127,0.447c0.439,0,0.796-0.351,1.069-1.049L72.425,9.396z"/>
<path fill="#005826" stroke="#005826" stroke-width="0.6014" d="M80.836,1.583l-0.777,1.205c-0.249,0.362-0.467,0.543-0.657,0.543
	c-0.356,0-0.769-0.194-1.232-0.582c-0.468-0.39-0.847-0.583-1.149-0.583c-0.548,0-1.285,1.141-2.218,3.42
	c-0.875,2.075-1.71,4.586-2.501,7.541c1.749-2.462,3.295-3.693,4.639-3.693c0.847,0,1.476,0.492,1.885,1.477
	c0.356,0.777,0.535,1.71,0.535,2.799c0,2.693-0.833,5.35-2.504,7.967c-1.668,2.618-3.326,3.925-4.967,3.925
	c-1.012,0-1.777-0.544-2.297-1.632c-0.467-0.933-0.699-2.137-0.699-3.615c0-0.361,0.014-0.725,0.041-1.087
	c0.271-3.006,1.456-6.796,3.55-11.368c2.096-4.573,3.714-6.86,4.865-6.86c0.327,0,0.74,0.174,1.231,0.524
	c0.494,0.351,0.902,0.524,1.229,0.524c0.275,0,0.521-0.195,0.74-0.583L80.836,1.583z M77.02,13.554c0-0.647-0.095-1.269-0.286-1.866
	c-0.191-0.699-0.452-1.048-0.779-1.048c-0.629,0-1.425,0.789-2.382,2.369c-0.822,1.349-1.574,2.93-2.259,4.743
	c-0.247,1.27-0.368,2.423-0.368,3.458c0,0.623,0.097,1.284,0.287,1.982c0.273,0.959,0.642,1.438,1.106,1.438
	c1.014,0,2.047-1.263,3.102-3.789C76.491,18.315,77.02,15.887,77.02,13.554z"/>
<path fill="#005826" stroke="#005826" stroke-width="0.6014" d="M92.042,9.396c-0.629,1.789-1.273,2.682-1.93,2.682
	c-0.352,0-0.795-0.123-1.312-0.37c-0.52-0.246-0.892-0.369-1.109-0.369c-0.711,0-2.19,1.793-4.433,5.378
	c-0.766,3.404-1.148,6.25-1.148,8.536c-0.41,0.025-1.233,0.144-2.466,0.35c0-3.662,1.07-8.352,3.205-14.068
	c0.08-0.208,0.041-0.311-0.124-0.311c-0.273,0-1.055,0.452-2.34,1.36l-0.247-0.311c2.025-1.735,3.367-2.605,4.023-2.605
	c0.384,0,0.574,0.351,0.574,1.051c0,0.387-0.124,0.984-0.368,1.787c-0.385,1.141-0.603,1.826-0.658,2.06
	c1.122-1.787,1.833-2.876,2.135-3.265c0.901-1.244,1.668-1.866,2.3-1.866c0.327,0,0.799,0.151,1.416,0.447
	c0.615,0.298,0.994,0.447,1.129,0.447c0.437,0,0.792-0.351,1.065-1.049L92.042,9.396z"/>
<path fill="#005826" stroke="#005826" stroke-width="0.6014" d="M98.569,11.61c0,1.789-1.095,3.487-3.283,5.094
	c-1.369,0.983-2.888,1.8-4.558,2.447c-0.106,0.545-0.163,1.141-0.163,1.788c0,2.357,0.549,3.537,1.642,3.537
	c0.74,0,1.422-0.434,2.053-1.303c0.629-0.867,0.945-1.78,0.945-2.74c0-0.232-0.015-0.452-0.04-0.66l0.407-0.077l0.369,2.331
	c-0.271,0.7-0.776,1.414-1.518,2.138c-0.958,0.96-1.943,1.438-2.956,1.438c-1.123,0-1.995-0.426-2.624-1.282
	c-0.576-0.751-0.864-1.684-0.864-2.799c0-2.539,1.067-5.182,3.204-7.929c2.077-2.642,3.964-3.964,5.662-3.964
	C97.994,9.628,98.569,10.289,98.569,11.61z M96.394,11.65c0-0.779-0.149-1.166-0.452-1.166c-0.736,0-1.647,0.823-2.729,2.468
	c-1.082,1.646-1.84,3.428-2.278,5.344c1.178-0.414,2.341-1.269,3.49-2.564C95.736,14.306,96.394,12.946,96.394,11.65z"/>
<path fill="#005826" stroke="#005826" stroke-width="0.6014" d="M144.947,2.244c-0.574,0.933-1.097,1.399-1.561,1.399
	c-0.163,0-0.522-0.195-1.067-0.583c-0.548-0.39-1.026-0.557-1.437-0.505c-1.536,0.181-2.945,1.516-4.229,4.003
	c-0.957,1.892-1.889,4.573-2.792,8.046c-0.63,2.539-1.245,5.092-1.848,7.656c-0.217,2.281-0.682,3.421-1.392,3.421
	c-0.467,0-0.699-0.183-0.699-0.545c0-0.958,0.45-1.981,1.354-3.071c0.273-1.838,0.41-3.264,0.41-4.275
	c0-4.793-0.861-8.641-2.584-11.543c-0.575,1.317-1.272,4.091-2.096,8.324c-0.683,3.613-1.572,6.194-2.669,7.743
	c-1.64,2.246-4.184,3.369-7.632,3.369c-1.696,0-3.19-0.387-4.478-1.158c-1.45-0.847-2.174-1.965-2.174-3.354
	c0-1.363,0.438-2.551,1.313-3.566c0.875-1.016,1.982-1.522,3.326-1.522c0.985,0,1.861,0.322,2.627,0.97l-1.56,2.177l-0.207-0.233
	c0.026-0.207,0.041-0.414,0.041-0.622c0-1.088-0.354-1.634-1.067-1.634c-0.71,0-1.272,0.416-1.683,1.245
	c-0.385,0.725-0.577,1.581-0.577,2.565c0,1.244,0.549,2.32,1.645,3.226c1.097,0.908,2.271,1.36,3.528,1.36
	c2.191,0,3.997-1.191,5.421-3.576c0.932-1.502,1.943-4.133,3.036-7.89c1.177-4.042,2.108-6.749,2.792-8.124
	c-1.78-2.592-4.419-3.888-7.922-3.888c-1.424,0-2.643,0.338-3.654,1.011c-1.148,0.727-1.725,1.672-1.725,2.839
	c0,0.984,0.344,1.84,1.026,2.564c0.684,0.727,1.534,1.089,2.546,1.089c0.875,0,1.601-0.479,2.175-1.438l0.288,0.037l-0.818,2.256
	c-0.607,0.466-1.14,0.7-1.604,0.7c-1.229,0-2.271-0.479-3.119-1.439c-0.847-0.958-1.271-2.061-1.271-3.304
	c0-1.736,0.821-3.135,2.463-4.197c1.501-0.985,3.296-1.477,5.378-1.477c2.378,0,4.335,0.609,5.868,1.826
	c2.301,1.814,4.008,5.105,5.132,9.873c2.436-6.893,4.979-10.34,7.634-10.34c0.383,0,0.85,0.188,1.395,0.564
	c0.548,0.376,0.916,0.564,1.11,0.564c0.383,0,0.793-0.233,1.23-0.7L144.947,2.244z"/>
<path fill="#005826" stroke="#005826" stroke-width="0.6014" d="M150.653,13.08c0,3.229-1.028,6.203-3.08,8.918
	c-1.835,2.404-3.45,3.604-4.843,3.604c-1.124,0-1.999-0.425-2.628-1.279c-0.576-0.749-0.861-1.68-0.861-2.791
	c0-2.095,0.928-4.576,2.79-7.445c2.023-3.103,4.049-4.653,6.075-4.653c0.794,0,1.418,0.342,1.867,1.027
	C150.427,11.146,150.653,12.021,150.653,13.08z M148.354,12.427c0-0.985-0.384-1.476-1.151-1.476c-1.312,0-2.537,1.088-3.673,3.264
	c-1.135,2.178-1.702,4.431-1.702,6.764c0,2.177,0.383,3.265,1.149,3.265c1.095,0,2.229-1.127,3.409-3.381
	C147.695,18.374,148.354,15.562,148.354,12.427z"/>
<path fill="#005826" stroke="#005826" stroke-width="0.6014" d="M162.841,9.396c-0.63,1.789-1.269,2.682-1.929,2.682
	c-0.354,0-0.794-0.123-1.312-0.37c-0.519-0.246-0.891-0.369-1.108-0.369c-0.712,0-2.191,1.793-4.433,5.378
	c-0.765,3.404-1.148,6.25-1.148,8.536c-0.41,0.025-1.233,0.144-2.465,0.35c0-3.662,1.07-8.352,3.203-14.068
	c0.081-0.208,0.042-0.311-0.122-0.311c-0.274,0-1.055,0.452-2.34,1.36l-0.248-0.311c2.026-1.735,3.366-2.605,4.024-2.605
	c0.379,0,0.573,0.351,0.573,1.051c0,0.387-0.123,0.984-0.369,1.787c-0.383,1.141-0.602,1.826-0.657,2.06
	c1.123-1.787,1.833-2.876,2.136-3.265c0.902-1.244,1.666-1.866,2.298-1.866c0.327,0,0.801,0.151,1.418,0.447
	c0.614,0.298,0.989,0.447,1.126,0.447c0.438,0,0.794-0.351,1.068-1.049L162.841,9.396z"/>
<path fill="#005826" stroke="#005826" stroke-width="0.6014" d="M175.363,22.574l-2.34,2.361c-0.438,0.445-0.892,0.667-1.355,0.667
	c-0.931,0-1.396-0.974-1.396-2.921c0-1.066,0.41-3.146,1.23-6.237c0.821-3.091,1.232-4.598,1.232-4.521
	c0-0.233-0.121-0.351-0.371-0.351c-0.767,0-2.012,1.027-3.733,3.079c-0.494,1.845-0.849,3.21-1.067,4.092
	c-0.355,1.534-0.562,2.65-0.616,3.352c-0.083,1.092-0.121,2.144-0.121,3.158c-0.385,0.025-1.18,0.144-2.381,0.35
	c0-0.857,0.04-1.753,0.12-2.687c0.109-1.119,0.576-3.263,1.396-6.433c0.822-3.065,1.229-4.586,1.229-4.56
	c0-0.233-0.119-0.351-0.365-0.351c-0.496,0-1.158,0.526-1.994,1.579c-0.835,1.052-1.634,2.085-2.398,3.098
	c-0.852,3.924-1.273,6.924-1.273,9.003c-0.386,0.025-1.178,0.144-2.382,0.35c0-3.662,1.068-8.352,3.202-14.068
	c0.081-0.208,0.041-0.311-0.124-0.311c-0.274,0-1.054,0.452-2.341,1.36l-0.245-0.311c2.026-1.735,3.367-2.605,4.023-2.605
	c0.384,0,0.573,0.351,0.573,1.051c0,0.387-0.135,0.997-0.407,1.827c-0.387,1.19-0.604,1.903-0.658,2.136
	c1.367-1.787,2.255-2.876,2.667-3.265c1.122-1.166,2.203-1.75,3.243-1.75c0.519,0,0.779,0.39,0.779,1.167
	c0,0.13-0.148,0.855-0.452,2.176c1.919-2.227,3.642-3.342,5.173-3.342c0.52,0,0.779,0.39,0.779,1.167
	c0,0.183-0.444,1.853-1.333,5.015c-0.891,3.161-1.334,5.285-1.334,6.374c0,1.191,0.205,1.788,0.617,1.788
	c0.328,0,1.011-0.569,2.05-1.711L175.363,22.574z"/>
<path fill="#005826" stroke="#005826" stroke-width="0.6014" d="M188.456,9.356c-0.656,0.467-1.094,1.114-1.314,1.944l-0.57,0.039
	c-1.424,4.716-2.138,8.344-2.138,10.883c0,1.191,0.205,1.788,0.618,1.788c0.327,0,1.011-0.569,2.049-1.711l0.372,0.275l-2.34,2.361
	c-0.438,0.445-0.921,0.667-1.437,0.667c-0.441,0-0.794-0.34-1.07-1.019c-0.216-0.548-0.327-1.188-0.327-1.92
	c0-0.601,0.026-1.163,0.083-1.686c-1.971,3.135-3.448,4.704-4.432,4.704c-0.74,0-1.314-0.429-1.725-1.282
	c-0.358-0.727-0.535-1.569-0.535-2.527c0-2.643,0.819-5.233,2.463-7.773c1.941-3.033,4.436-4.548,7.472-4.548
	c1.285,0,2.189-0.116,2.709-0.35L188.456,9.356z M184.519,11.376l-1.643,0.157c-3.119,0.337-4.684,3.835-4.684,10.494
	c0,1.321,0.209,1.983,0.618,1.983c0.629,0,1.818-1.581,3.571-4.742C183.148,16.003,183.86,13.374,184.519,11.376z"/>
<path fill="#005826" stroke="#005826" stroke-width="0.6014" d="M198.883,22.574l-2.34,2.361c-0.438,0.445-0.891,0.667-1.353,0.667
	c-0.959,0-1.438-0.974-1.438-2.921c0-1.066,0.409-3.146,1.232-6.237c0.818-3.091,1.23-4.598,1.23-4.521
	c0-0.233-0.122-0.351-0.369-0.351c-0.821,0-2.503,1.558-5.051,4.677c-0.848,3.716-1.271,6.717-1.271,9.003
	c-0.386,0.025-1.191,0.144-2.422,0.35c0-3.559,1.079-8.247,3.242-14.068c0.053-0.208,0.015-0.311-0.121-0.311
	c-0.388,0-1.166,0.452-2.344,1.36l-0.246-0.311c2.026-1.735,3.352-2.605,3.981-2.605c0.415,0,0.617,0.351,0.617,1.051
	c0,0.387-0.136,0.997-0.412,1.827c-0.382,1.19-0.603,1.903-0.654,2.136c2.571-3.343,4.762-5.015,6.566-5.015
	c0.521,0,0.78,0.39,0.78,1.167c0,0.183-0.45,1.853-1.353,5.015c-0.906,3.161-1.357,5.285-1.357,6.374
	c0,1.191,0.219,1.788,0.658,1.788c0.328,0,1.012-0.569,2.052-1.711L198.883,22.574z"/>
<path fill="#005826" stroke="#005826" stroke-width="0.6014" d="M217.682,1.543l-0.776,1.245c-0.221,0.362-0.441,0.543-0.658,0.543
	c-0.356,0-0.768-0.194-1.232-0.582c-0.468-0.39-0.86-0.583-1.19-0.583c-0.794,0-2.04,2.553-3.734,7.657
	c-1.78,5.261-2.668,9.395-2.668,12.399c0,1.191,0.218,1.788,0.657,1.788c0.327,0,1.011-0.569,2.049-1.711l0.371,0.275l-2.338,2.361
	c-0.44,0.445-0.92,0.667-1.439,0.667c-0.929,0-1.394-0.98-1.394-2.941c0-0.522,0.014-0.917,0.041-1.177
	c-1.806,2.798-3.176,4.198-4.104,4.198c-0.74,0-1.314-0.429-1.724-1.282c-0.36-0.727-0.536-1.569-0.536-2.527
	c0-2.618,0.822-5.221,2.465-7.813c1.914-3.083,4.323-4.637,7.225-4.664c1.011-2.384,2.031-4.378,3.059-5.985
	C212.779,1.803,213.578,1,214.154,1c0.354,0,0.779,0.183,1.271,0.544c0.492,0.364,0.902,0.544,1.229,0.544
	c0.25,0,0.493-0.207,0.739-0.622L217.682,1.543z M207.791,11.455c-0.275,0-0.809,0.026-1.6,0.078
	c-1.809,0.104-3.106,1.451-3.9,4.042c-0.521,1.762-0.78,3.912-0.78,6.452c0,1.321,0.204,1.983,0.615,1.983
	c0.63,0,1.82-1.581,3.57-4.742C206.489,15.874,207.188,13.268,207.791,11.455z"/>
<path fill="#623818" d="M107.563,36.57c0,0.039,0.012,0.068,0.037,0.088c0.021,0.02,0.073,0.029,0.151,0.029v0.14h-1.846v-0.14
	c0.076-0.017,0.132-0.042,0.167-0.077c0.033-0.035,0.068-0.099,0.103-0.193c0.014-0.038,0.049-0.144,0.105-0.315
	c0.056-0.172,0.128-0.389,0.219-0.651c0.089-0.261,0.19-0.552,0.302-0.872c0.111-0.32,0.224-0.646,0.335-0.978
	c0.109-0.332,0.221-0.656,0.329-0.972c0.107-0.316,0.202-0.6,0.286-0.85c0.081-0.249,0.149-0.452,0.201-0.608
	c0.053-0.157,0.079-0.239,0.079-0.247c0-0.039-0.021-0.065-0.068-0.083c-0.045-0.016-0.093-0.026-0.141-0.034v-0.142h2.723v0.142
	c-0.056,0.008-0.101,0.019-0.137,0.034c-0.034,0.017-0.052,0.055-0.052,0.117c0,0.016,0.033,0.117,0.1,0.305
	c0.065,0.188,0.151,0.433,0.256,0.732c0.103,0.301,0.223,0.641,0.357,1.019c0.137,0.379,0.277,0.767,0.424,1.159
	c0.146,0.395,0.288,0.779,0.422,1.154c0.136,0.375,0.26,0.71,0.37,1.007c0.055,0.141,0.104,0.234,0.141,0.281
	c0.039,0.046,0.089,0.07,0.151,0.07v0.14h-2.056v-0.14c0.134-0.008,0.2-0.055,0.2-0.141c0-0.007-0.019-0.06-0.053-0.158
	c-0.035-0.097-0.072-0.207-0.116-0.328c-0.039-0.121-0.08-0.236-0.118-0.346c-0.038-0.109-0.061-0.183-0.067-0.222h-2.472
	c-0.068,0.211-0.126,0.382-0.165,0.515c-0.043,0.132-0.075,0.239-0.1,0.316c-0.024,0.078-0.042,0.134-0.052,0.17
	C107.568,36.529,107.563,36.554,107.563,36.57z M110.096,34.555l-1.011-2.788l-0.927,2.788H110.096z"/>
<path fill="#623818" d="M113.903,31.862c-0.05-0.024-0.102-0.039-0.157-0.047v-0.141h3.347c0.521,0,0.936,0.137,1.245,0.409
	c0.311,0.274,0.466,0.68,0.466,1.218c0,0.421-0.109,0.755-0.328,1.001c-0.221,0.246-0.496,0.439-0.83,0.58l0.929,1.569
	c0.034,0.063,0.086,0.118,0.151,0.165c0.063,0.046,0.136,0.07,0.215,0.07v0.14h-2.108v-0.14c0.048,0,0.101-0.01,0.162-0.029
	c0.059-0.02,0.09-0.062,0.09-0.124c0-0.039-0.038-0.136-0.111-0.292c-0.072-0.156-0.155-0.323-0.25-0.504
	c-0.094-0.179-0.185-0.351-0.272-0.515c-0.084-0.164-0.139-0.27-0.162-0.316h-0.998v1.569c0,0.085,0.026,0.141,0.078,0.163
	c0.053,0.024,0.116,0.04,0.192,0.048v0.14h-1.794v-0.14c0.042-0.008,0.087-0.024,0.137-0.048c0.05-0.022,0.073-0.078,0.073-0.163
	v-4.45C113.977,31.94,113.953,31.885,113.903,31.862z M116.77,33.923c0.222,0,0.397-0.053,0.527-0.158
	c0.128-0.105,0.192-0.263,0.192-0.474c0-0.18-0.054-0.33-0.161-0.451c-0.108-0.122-0.319-0.183-0.631-0.183h-1.407v1.265H116.77z"/>
<path fill="#623818" d="M120.382,31.862c-0.058-0.024-0.14-0.039-0.243-0.047v-0.141h3.138c0.312,0,0.581,0.019,0.802,0.053
	c0.222,0.035,0.403,0.1,0.542,0.193c0.14,0.094,0.243,0.225,0.309,0.393c0.066,0.168,0.098,0.381,0.098,0.638
	c0,0.25-0.066,0.475-0.203,0.674c-0.135,0.199-0.296,0.35-0.483,0.45c0.28,0.102,0.493,0.248,0.638,0.439
	c0.145,0.192,0.218,0.463,0.218,0.814c0,0.46-0.146,0.825-0.438,1.095c-0.293,0.269-0.773,0.404-1.433,0.404h-3.186v-0.14
	c0.104-0.008,0.186-0.024,0.243-0.048c0.059-0.022,0.088-0.078,0.088-0.163v-4.45C120.47,31.94,120.44,31.885,120.382,31.862z
	 M123.108,33.782c0.271,0,0.456-0.055,0.548-0.164c0.095-0.109,0.141-0.243,0.141-0.398c0-0.234-0.057-0.386-0.172-0.457
	c-0.115-0.07-0.286-0.106-0.517-0.106h-1.24v1.125H123.108z M123.005,35.843c0.244,0,0.447-0.047,0.615-0.14
	c0.167-0.094,0.249-0.258,0.249-0.492c0-0.157-0.024-0.277-0.079-0.363c-0.05-0.085-0.118-0.148-0.201-0.188
	c-0.084-0.039-0.177-0.062-0.275-0.071c-0.102-0.007-0.205-0.011-0.309-0.011h-1.137v1.264H123.005z"/>
<path fill="#623818" d="M129.912,31.756c0.329,0.102,0.629,0.26,0.897,0.474c0.268,0.215,0.484,0.491,0.65,0.827
	c0.169,0.335,0.249,0.734,0.249,1.194c0,0.469-0.08,0.869-0.249,1.2c-0.166,0.333-0.383,0.604-0.65,0.814
	c-0.269,0.211-0.568,0.362-0.897,0.457s-0.659,0.141-0.984,0.141c-0.326,0-0.656-0.047-0.987-0.141
	c-0.329-0.094-0.627-0.246-0.896-0.457c-0.269-0.21-0.485-0.482-0.65-0.814c-0.169-0.331-0.251-0.731-0.251-1.2
	c0-0.46,0.082-0.858,0.251-1.194c0.165-0.336,0.382-0.611,0.65-0.827c0.269-0.213,0.566-0.372,0.896-0.474
	c0.331-0.102,0.661-0.152,0.987-0.152C129.253,31.604,129.583,31.655,129.912,31.756z M128.373,32.945
	c-0.172,0.067-0.324,0.161-0.457,0.282c-0.132,0.122-0.235,0.269-0.308,0.441c-0.074,0.172-0.11,0.369-0.11,0.588
	c0,0.22,0.036,0.416,0.11,0.588c0.072,0.172,0.176,0.319,0.308,0.441c0.133,0.121,0.285,0.216,0.457,0.282
	c0.174,0.066,0.358,0.1,0.555,0.1c0.201,0,0.387-0.033,0.556-0.1c0.172-0.066,0.324-0.161,0.454-0.282
	c0.134-0.122,0.235-0.269,0.31-0.441c0.071-0.172,0.109-0.369,0.109-0.588c0-0.219-0.038-0.416-0.109-0.588
	c-0.074-0.172-0.176-0.319-0.31-0.441c-0.13-0.121-0.282-0.215-0.454-0.282c-0.169-0.066-0.354-0.1-0.556-0.1
	C128.731,32.845,128.547,32.879,128.373,32.945z"/>
<path fill="#623818" d="M133.014,31.862c-0.048-0.024-0.101-0.039-0.156-0.047v-0.141h3.348c0.521,0,0.935,0.137,1.245,0.409
	c0.31,0.274,0.465,0.68,0.465,1.218c0,0.421-0.108,0.755-0.328,1.001c-0.218,0.246-0.496,0.439-0.829,0.58l0.929,1.569
	c0.034,0.063,0.084,0.118,0.151,0.165c0.065,0.046,0.136,0.07,0.212,0.07v0.14h-2.105v-0.14c0.049,0,0.101-0.01,0.162-0.029
	c0.058-0.02,0.089-0.062,0.089-0.124c0-0.039-0.038-0.136-0.109-0.292c-0.073-0.156-0.156-0.323-0.252-0.504
	c-0.093-0.179-0.183-0.351-0.271-0.515c-0.086-0.164-0.139-0.27-0.16-0.316h-1.001v1.569c0,0.085,0.027,0.141,0.076,0.163
	c0.054,0.024,0.117,0.04,0.195,0.048v0.14h-1.794v-0.14c0.041-0.008,0.087-0.024,0.135-0.048c0.05-0.022,0.074-0.078,0.074-0.163
	v-4.45C133.088,31.94,133.063,31.885,133.014,31.862z M135.882,33.923c0.224,0,0.396-0.053,0.526-0.158
	c0.129-0.105,0.193-0.263,0.193-0.474c0-0.18-0.054-0.33-0.162-0.451c-0.108-0.122-0.317-0.183-0.631-0.183h-1.407v1.265H135.882z"
	/>
<path fill="#623818" d="M141.263,31.815c-0.104,0.008-0.187,0.023-0.246,0.047c-0.058,0.023-0.089,0.078-0.089,0.165v4.45
	c0,0.085,0.031,0.141,0.089,0.163c0.06,0.024,0.142,0.04,0.246,0.048v0.14h-2.066v-0.14c0.105-0.008,0.187-0.024,0.246-0.048
	c0.058-0.022,0.089-0.078,0.089-0.163v-4.45c0-0.086-0.031-0.141-0.089-0.165c-0.06-0.024-0.141-0.039-0.246-0.047v-0.141h2.066
	V31.815z"/>
<path fill="#623818" d="M142.919,35.106c0,0.016-0.001,0.033-0.004,0.052c-0.004,0.019-0.006,0.045-0.006,0.077
	c0,0.078,0.066,0.152,0.196,0.221c0.134,0.071,0.303,0.136,0.509,0.194c0.203,0.059,0.427,0.106,0.665,0.14
	c0.241,0.036,0.466,0.053,0.673,0.053c0.062,0,0.147-0.004,0.257-0.012c0.107-0.007,0.213-0.029,0.316-0.063
	c0.104-0.035,0.193-0.086,0.267-0.153c0.074-0.066,0.109-0.159,0.109-0.275c0-0.156-0.083-0.267-0.251-0.334
	c-0.166-0.065-0.376-0.117-0.63-0.153c-0.253-0.035-0.528-0.071-0.824-0.11c-0.295-0.039-0.568-0.107-0.823-0.205
	c-0.255-0.098-0.464-0.237-0.631-0.422c-0.168-0.183-0.25-0.439-0.25-0.767c0-0.18,0.041-0.373,0.124-0.58
	c0.083-0.207,0.217-0.396,0.398-0.568c0.179-0.171,0.418-0.314,0.713-0.428c0.296-0.113,0.656-0.169,1.08-0.169
	c0.249,0,0.486,0.016,0.715,0.047c0.225,0.031,0.428,0.066,0.613,0.105c0.186,0.039,0.342,0.075,0.469,0.105
	c0.13,0.031,0.221,0.047,0.277,0.047c0.056,0,0.101-0.018,0.136-0.052c0.034-0.036,0.065-0.065,0.094-0.089l0.116,0.048
	l-0.627,1.476l-0.135-0.071c0-0.016,0.001-0.035,0.004-0.059c0.004-0.023,0.004-0.047,0.004-0.07c0-0.031-0.041-0.07-0.124-0.117
	s-0.192-0.094-0.328-0.14c-0.135-0.048-0.288-0.088-0.458-0.124c-0.171-0.035-0.347-0.053-0.527-0.053
	c-0.063,0-0.158,0.003-0.291,0.006c-0.133,0.004-0.266,0.024-0.396,0.059c-0.134,0.035-0.249,0.086-0.351,0.152
	c-0.101,0.067-0.15,0.167-0.15,0.298c0,0.141,0.083,0.241,0.25,0.299c0.167,0.058,0.378,0.105,0.63,0.141
	c0.254,0.035,0.529,0.074,0.824,0.116c0.296,0.044,0.571,0.116,0.824,0.218c0.253,0.101,0.463,0.247,0.631,0.438
	c0.167,0.192,0.249,0.459,0.249,0.803c0,0.227-0.045,0.443-0.134,0.649c-0.091,0.208-0.229,0.389-0.418,0.545
	s-0.426,0.275-0.713,0.356c-0.289,0.083-0.633,0.124-1.029,0.124c-0.248,0-0.503-0.019-0.759-0.053
	c-0.259-0.035-0.494-0.078-0.71-0.129c-0.216-0.05-0.396-0.097-0.537-0.14c-0.143-0.043-0.223-0.064-0.245-0.064
	c-0.047,0-0.093,0.018-0.13,0.053c-0.039,0.036-0.076,0.072-0.11,0.11l-0.113-0.035l0.427-1.568L142.919,35.106z"/>
<path fill="#623818" d="M152.97,31.627c0.041-0.031,0.062-0.101,0.062-0.21h0.126v1.71h-0.126c0-0.11-0.021-0.18-0.062-0.211
	c-0.039-0.031-0.082-0.047-0.124-0.047h-1.491v3.607c0,0.085,0.026,0.141,0.078,0.163c0.052,0.024,0.106,0.04,0.162,0.048v0.14
	h-1.877v-0.14c0.056-0.008,0.109-0.024,0.162-0.048c0.052-0.022,0.076-0.078,0.076-0.163v-3.607h-1.49
	c-0.042,0-0.082,0.016-0.125,0.047c-0.042,0.031-0.062,0.101-0.062,0.211h-0.125v-1.71h0.125c0,0.11,0.02,0.18,0.062,0.21
	c0.043,0.031,0.083,0.047,0.125,0.047h4.38C152.888,31.674,152.931,31.659,152.97,31.627z"/>
<path fill="#623818" d="M159.112,35.503h0.123v1.535h-0.102c-0.035-0.11-0.072-0.172-0.11-0.188s-0.1-0.023-0.184-0.023h-4.65v-0.14
	c0.077-0.008,0.145-0.024,0.202-0.048c0.062-0.022,0.091-0.078,0.091-0.163v-4.45c0-0.086-0.029-0.141-0.091-0.165
	c-0.058-0.024-0.125-0.039-0.202-0.047v-0.141h4.734c0.042,0,0.083-0.016,0.125-0.047c0.041-0.031,0.063-0.101,0.063-0.21h0.123
	v1.569h-0.123c0-0.117-0.022-0.192-0.063-0.229c-0.042-0.035-0.083-0.052-0.125-0.052h-3.045v0.949h1.961
	c0.041,0,0.083-0.019,0.125-0.053c0.04-0.036,0.063-0.107,0.063-0.217h0.124v1.522h-0.124c0-0.109-0.023-0.182-0.063-0.217
	c-0.042-0.035-0.084-0.052-0.125-0.052h-1.961v1.159h2.961C158.979,35.796,159.069,35.699,159.112,35.503z"/>
<path fill="#623818" d="M167.203,34.59c-0.057,0-0.095,0.022-0.113,0.065c-0.022,0.043-0.037,0.1-0.044,0.169h-0.124v-1.639h0.124
	c0.014,0.14,0.066,0.21,0.157,0.21h3.076v0.14c-0.112,0.009-0.167,0.075-0.167,0.2v1.944c0,0.055,0.006,0.101,0.021,0.14
	c0.014,0.039,0.048,0.06,0.103,0.06h0.055v0.14c-0.944,0.562-2.065,0.844-3.358,0.844c-0.437,0-0.86-0.061-1.267-0.182
	c-0.407-0.121-0.766-0.31-1.078-0.568c-0.313-0.257-0.567-0.583-0.757-0.977c-0.191-0.395-0.287-0.857-0.287-1.388
	c0-0.532,0.096-0.994,0.287-1.388c0.189-0.395,0.443-0.722,0.757-0.984c0.312-0.262,0.671-0.457,1.078-0.585
	c0.406-0.129,0.83-0.193,1.267-0.193c0.174,0,0.327,0.004,0.458,0.012c0.132,0.007,0.262,0.022,0.387,0.046
	c0.125,0.023,0.255,0.053,0.386,0.088c0.132,0.035,0.289,0.08,0.468,0.135c0.176,0.054,0.335,0.119,0.479,0.193
	c0.147,0.074,0.241,0.112,0.282,0.112c0.056,0,0.104-0.032,0.147-0.095l0.124,0.047l-0.678,1.546L168.86,32.6
	c0.015-0.048,0.021-0.09,0.021-0.129c0-0.055-0.06-0.115-0.179-0.182c-0.118-0.066-0.266-0.126-0.447-0.182
	c-0.181-0.054-0.384-0.101-0.61-0.141c-0.225-0.04-0.445-0.058-0.661-0.058c-0.25,0-0.489,0.036-0.714,0.111
	c-0.227,0.074-0.427,0.189-0.605,0.345c-0.177,0.157-0.318,0.35-0.423,0.58c-0.104,0.231-0.155,0.506-0.155,0.826
	c0,0.312,0.062,0.583,0.187,0.813c0.126,0.23,0.284,0.42,0.474,0.568c0.192,0.148,0.404,0.258,0.642,0.328
	c0.237,0.07,0.469,0.106,0.701,0.106c0.291,0,0.552-0.021,0.786-0.06c0.231-0.039,0.456-0.093,0.672-0.164V34.59H167.203z"/>
<path fill="#623818" d="M171.529,31.862c-0.047-0.024-0.102-0.039-0.155-0.047v-0.141h3.346c0.521,0,0.937,0.137,1.247,0.409
	c0.309,0.274,0.464,0.68,0.464,1.218c0,0.421-0.109,0.755-0.328,1.001s-0.497,0.439-0.829,0.58l0.927,1.569
	c0.035,0.063,0.086,0.118,0.153,0.165c0.064,0.046,0.136,0.07,0.213,0.07v0.14h-2.107v-0.14c0.048,0,0.103-0.01,0.162-0.029
	c0.058-0.02,0.089-0.062,0.089-0.124c0-0.039-0.036-0.136-0.11-0.292c-0.071-0.156-0.155-0.323-0.249-0.504
	c-0.096-0.179-0.185-0.351-0.271-0.515c-0.086-0.164-0.139-0.27-0.162-0.316h-1v1.569c0,0.085,0.025,0.141,0.078,0.163
	c0.052,0.024,0.116,0.04,0.191,0.048v0.14h-1.791v-0.14c0.041-0.008,0.087-0.024,0.134-0.048c0.049-0.022,0.073-0.078,0.073-0.163
	v-4.45C171.603,31.94,171.578,31.885,171.529,31.862z M174.396,33.923c0.223,0,0.399-0.053,0.526-0.158
	c0.128-0.105,0.193-0.263,0.193-0.474c0-0.18-0.055-0.33-0.16-0.451c-0.108-0.122-0.319-0.183-0.632-0.183h-1.407v1.265H174.396z"/>
<path fill="#623818" d="M179.776,31.815c-0.103,0.008-0.187,0.023-0.245,0.047c-0.058,0.023-0.089,0.078-0.089,0.165v4.45
	c0,0.085,0.031,0.141,0.089,0.163c0.059,0.024,0.143,0.04,0.245,0.048v0.14h-2.063v-0.14c0.104-0.008,0.186-0.024,0.244-0.048
	c0.06-0.022,0.089-0.078,0.089-0.163v-4.45c0-0.086-0.029-0.141-0.089-0.165c-0.059-0.024-0.141-0.039-0.244-0.047v-0.141h2.063
	V31.815z"/>
<path fill="#623818" d="M182.707,36.639c0.056,0.024,0.125,0.04,0.209,0.048v0.14h-1.636v-0.14c0.053-0.008,0.107-0.024,0.162-0.048
	c0.049-0.022,0.076-0.078,0.076-0.163v-4.45c0-0.086-0.027-0.141-0.076-0.165c-0.055-0.024-0.109-0.039-0.162-0.047v-0.141h2.261
	v0.141c-0.057,0.008-0.102,0.016-0.141,0.023c-0.038,0.009-0.057,0.032-0.057,0.071c0,0.031,0.039,0.145,0.12,0.339
	c0.08,0.196,0.172,0.41,0.274,0.645c0.104,0.234,0.202,0.455,0.294,0.662c0.09,0.207,0.144,0.341,0.166,0.404
	c0.082-0.187,0.179-0.393,0.286-0.615s0.207-0.433,0.304-0.632c0.094-0.2,0.171-0.373,0.233-0.521
	c0.062-0.148,0.094-0.242,0.094-0.281c0-0.039-0.019-0.062-0.057-0.071c-0.038-0.007-0.086-0.015-0.142-0.023v-0.141h2.274v0.141
	c-0.051,0.008-0.1,0.023-0.146,0.047c-0.051,0.023-0.074,0.078-0.074,0.165v4.45c0,0.085,0.023,0.141,0.074,0.163
	c0.046,0.024,0.095,0.04,0.146,0.048v0.14h-1.743v-0.14c0.076-0.008,0.144-0.024,0.193-0.048c0.053-0.022,0.079-0.078,0.079-0.163
	V33.15h-0.023l-1.551,3.384l-1.502-3.384h-0.021v3.326C182.624,36.562,182.651,36.617,182.707,36.639z"/>
<path fill="#623818" d="M188.811,31.862c-0.045-0.024-0.076-0.039-0.1-0.047v-0.141h2.744c0.256,0,0.506,0.024,0.745,0.07
	c0.241,0.047,0.449,0.133,0.63,0.258c0.182,0.125,0.327,0.294,0.439,0.508c0.108,0.215,0.167,0.494,0.167,0.838
	c0,0.336-0.059,0.613-0.167,0.831c-0.112,0.219-0.258,0.391-0.439,0.516c-0.181,0.125-0.389,0.211-0.63,0.258
	c-0.239,0.046-0.489,0.07-0.745,0.07h-1.179v1.453c0,0.085,0.025,0.141,0.079,0.163c0.05,0.024,0.105,0.04,0.16,0.048v0.14h-1.805
	v-0.14c0.023-0.008,0.055-0.024,0.1-0.048c0.045-0.022,0.068-0.078,0.068-0.163v-4.45C188.879,31.94,188.855,31.885,188.811,31.862z
	 M191.267,34.04c0.293,0,0.5-0.053,0.626-0.158c0.124-0.105,0.187-0.283,0.187-0.533c0-0.241-0.055-0.417-0.166-0.527
	s-0.299-0.165-0.564-0.165h-1.072v1.382H191.267z"/>
<path fill="#623818" d="M199.357,35.503h0.126v1.535h-0.104c-0.034-0.11-0.071-0.172-0.11-0.188
	c-0.037-0.016-0.099-0.023-0.185-0.023h-4.647v-0.14c0.075-0.008,0.145-0.024,0.201-0.048c0.062-0.022,0.092-0.078,0.092-0.163
	v-4.45c0-0.086-0.03-0.141-0.092-0.165c-0.057-0.024-0.126-0.039-0.201-0.047v-0.141h4.733c0.041,0,0.082-0.016,0.124-0.047
	c0.041-0.031,0.062-0.101,0.062-0.21h0.126v1.569h-0.126c0-0.117-0.021-0.192-0.062-0.229c-0.042-0.035-0.083-0.052-0.124-0.052
	h-3.045v0.949h1.961c0.041,0,0.082-0.019,0.123-0.053c0.042-0.036,0.064-0.107,0.064-0.217h0.125v1.522h-0.125
	c0-0.109-0.022-0.182-0.064-0.217c-0.041-0.035-0.082-0.052-0.123-0.052h-1.961v1.159h2.959
	C199.227,35.796,199.315,35.699,199.357,35.503z"/>
<path fill="#623818" d="M201.114,31.862c-0.06-0.024-0.129-0.039-0.212-0.047v-0.141h1.875v0.141
	c-0.035,0.008-0.073,0.023-0.115,0.047c-0.04,0.023-0.062,0.078-0.062,0.165v2.845c0,0.296,0.095,0.509,0.287,0.638
	s0.443,0.194,0.757,0.194s0.565-0.065,0.755-0.194c0.192-0.129,0.287-0.341,0.287-0.638v-2.845c0-0.086-0.021-0.141-0.062-0.165
	c-0.042-0.024-0.08-0.039-0.114-0.047v-0.141h1.877v0.141c-0.085,0.008-0.155,0.023-0.216,0.047
	c-0.057,0.023-0.087,0.078-0.087,0.165v2.576c0,0.312-0.044,0.607-0.125,0.884c-0.084,0.276-0.22,0.519-0.408,0.726
	c-0.187,0.208-0.436,0.367-0.749,0.48c-0.313,0.113-0.698,0.17-1.157,0.17c-0.458,0-0.846-0.057-1.157-0.17
	c-0.314-0.114-0.564-0.273-0.752-0.48c-0.188-0.207-0.322-0.449-0.405-0.726c-0.084-0.277-0.126-0.572-0.126-0.884v-2.576
	C201.203,31.94,201.174,31.885,201.114,31.862z"/>
<path fill="#623818" d="M208.022,31.862c-0.049-0.024-0.1-0.039-0.158-0.047v-0.141h3.348c0.522,0,0.938,0.137,1.246,0.409
	c0.311,0.274,0.465,0.68,0.465,1.218c0,0.421-0.109,0.755-0.329,1.001c-0.218,0.246-0.493,0.439-0.828,0.58l0.927,1.569
	c0.035,0.063,0.086,0.118,0.152,0.165c0.065,0.046,0.138,0.07,0.214,0.07v0.14h-2.105v-0.14c0.048,0,0.101-0.01,0.161-0.029
	c0.059-0.02,0.088-0.062,0.088-0.124c0-0.039-0.036-0.136-0.109-0.292c-0.073-0.156-0.156-0.323-0.25-0.504
	c-0.093-0.179-0.184-0.351-0.271-0.515c-0.087-0.164-0.141-0.27-0.162-0.316h-1v1.569c0,0.085,0.025,0.141,0.079,0.163
	c0.05,0.024,0.116,0.04,0.193,0.048v0.14h-1.794v-0.14c0.041-0.008,0.086-0.024,0.135-0.048c0.048-0.022,0.072-0.078,0.072-0.163
	v-4.45C208.095,31.94,208.07,31.885,208.022,31.862z M210.891,33.923c0.222,0,0.397-0.053,0.526-0.158
	c0.128-0.105,0.191-0.263,0.191-0.474c0-0.18-0.052-0.33-0.16-0.451c-0.108-0.122-0.318-0.183-0.633-0.183h-1.406v1.265H210.891z"/>
</svg>
